<?xml version="1.0" encoding="UTF-8"?>
<svg width="26px" height="21px" viewBox="0 0 26 21" version="1.1" xmlns="http://www.w3.org/2000/svg" xmlns:xlink="http://www.w3.org/1999/xlink">
    <!-- Generator: Sketch 41.2 (35397) - http://www.bohemiancoding.com/sketch -->
    <title>Stroke 500 + Stroke 501 + Stroke 502</title>
    <desc>Created with Sketch.</desc>
    <defs></defs>
    <g id="Mob" stroke="none" stroke-width="1" fill="none" fill-rule="evenodd" stroke-linecap="round" stroke-linejoin="round">
        <g id="mMain_actual" transform="translate(-48.000000, -623.000000)" stroke="#000000">
            <g id="Stroke-500-+-Stroke-501-+-Stroke-502" transform="translate(48.000000, 623.000000)">
                <path d="M7.875,4.725 L7.875,13.67835 C7.875,16.5564 9.50145,19.1877 12.075,20.475" id="Stroke-500"></path>
                <path d="M24.675,9.45 C24.675,10.3194 23.9694,11.025 23.1,11.025 L22.575,11.025 L22.575,6.825 L23.1,6.825 C23.9694,6.825 24.675,7.5306 24.675,8.4 L24.675,9.45 L24.675,9.45 Z" id="Stroke-501"></path>
                <path d="M4.725,4.725 L3.675,4.725 C1.9362,4.725 0.525,6.13515 0.525,7.875 L0.525,9.975 C0.525,11.7138 1.9362,13.125 3.675,13.125 L4.725,13.125 C14.09835,13.125 17.9445,15.21975 22.575,17.325 L22.575,0.525 C17.955,2.625 14.1036,4.725 4.725,4.725 L4.725,4.725 Z" id="Stroke-502"></path>
            </g>
        </g>
    </g>
</svg>