<?xml version="1.0" encoding="UTF-8" standalone="no"?>
<svg width="22px" height="22px" viewBox="0 0 22 22" version="1.1" xmlns="http://www.w3.org/2000/svg" xmlns:xlink="http://www.w3.org/1999/xlink">
    <!-- Generator: Sketch 40.3 (33839) - http://www.bohemiancoding.com/sketch -->
    <title>Group 19</title>
    <desc>Created with Sketch.</desc>
    <defs></defs>
    <g id="Page-2" stroke="none" stroke-width="1" fill="none" fill-rule="evenodd">
        <g id="iPad-Portrait-Copy" transform="translate(-374.000000, -979.000000)" stroke="#000000">
            <g id="Group" transform="translate(-1.000000, 930.000000)">
                <g id="Group-7" transform="translate(240.000000, 49.000000)">
                    <g id="Group-4" transform="translate(119.000000, 0.000000)">
                        <g id="Group-19" transform="translate(17.000000, 0.000000)">
                            <path d="M17.632,18.1 L17.632,2" id="Shape"></path>
                            <path d="M17.532,20.8 L2.732,20.8 C1.332,20.8 0.132,19.6 0.132,18.2 L0.132,0.6 L15.032,0.6 L15.032,18.1 C14.932,19.6 16.132,20.8 17.532,20.8 C19.032,20.8 20.132,19.6 20.132,18.2 L20.132,3.3" id="Shape"></path>
                            <rect id="Rectangle-path" x="2.732" y="4.2" width="4.4" height="4"></rect>
                            <path d="M9.732,6.5 L12.032,6.5" id="Shape"></path>
                            <path d="M3.032,16.8 L12.032,16.8" id="Shape"></path>
                            <path d="M3.032,12.1 L12.032,12.1" id="Shape"></path>
                        </g>
                    </g>
                </g>
            </g>
        </g>
    </g>
</svg>