<svg xmlns="http://www.w3.org/2000/svg" xmlns:xlink="http://www.w3.org/1999/xlink" width="72" height="24" viewBox="0 0 72 24"><defs><path id="a" d="M23.853 0H0v23.853h23.853V0z"/></defs><g fill="none" fill-rule="evenodd"><mask id="b" fill="#fff"><use xlink:href="#a"/></mask><path fill="#CA202B" d="M11.927 0c6.587 0 11.926 5.34 11.926 11.927s-5.34 11.926-11.926 11.926C5.34 23.853 0 18.513 0 11.927 0 5.34 5.34 0 11.927 0" mask="url(#b)"/><path fill="#FEFEFE" d="M15.616 17.872s-1.078 0-1.078-1.344V7.626c0-1.344-.446-1.848-.446-1.848s1.4.504 1.4 2.353v7.894c0 1.774.902 1.513.902 1.513s-.218.334-.778.334zm-2.185-2.228s-1.28 1.566-2.966 1.566c-1.445 0-2.377-1.206-2.377-2.514 0-3.63 5.343-4.112 5.343-4.112v5.06zM9.386 18.05c-1.558 0-2.373-1.342-2.373-2.667 0-.793.23-1.505.685-2.129l.029-.076a4.56 4.56 0 0 0-.277 1.517c0 1.689 1.055 3.01 2.539 3.296-.198.038-.4.059-.603.059zm-.987-9.827a.42.42 0 0 1-.84 0s0-1.094 1.176-2.101c-.504 1.008-.336 2.1-.336 2.1zm8.822 8.819c-.672 0-.61-.84-.61-.84V9.315c0-1.176-.159-4.704-4.709-4.704-1.583 0-2.892.357-3.77 1.07-.88.713-1.358 1.494-1.358 2.343 0 .441.098.793.333 1.052.234.258.528.387.898.387.372 0 .67-.124.904-.37.235-.245.351-.595.351-1.051l-.02-.408c0-1.344.837-2.267 2.09-2.267s2.1.923 2.1 2.267V9.65s-7.391.671-7.391 5.733c0 1.826 1.264 3.505 3.28 3.505 2.352 0 4.112-1.915 4.112-1.915s.418 1.915 2.097 1.915c1.014 0 2.038-.706 3.31-2.184v-.839c0 .001-.945 1.177-1.617 1.177z"/><path fill="#000" d="M26.287 16.77v-.626h1.253v-7.51h-1.253v-1.25h3.13v1.87c0-.633.614-1.112 1.09-1.434.479-.323.998-.483 1.631-.483 1.033 0 1.741.295 2.23.889.486.591.682 1.515.682 2.77v5.147h1.25v.627h-4.38v-.627h1.252v-4.638c0-1.143.014-1.928-.269-2.354-.28-.423-.697-.635-1.408-.635-.75 0-1.209.273-1.602.823-.393.547-.477 1.344-.477 2.394v4.41h1.251v.627h-4.38zm18.622-5.005c-.036-1.25-.266-2.043-.69-2.596-.426-.555-1.039-.896-1.835-.896-.745 0-1.33.373-1.758.933-.428.556-.69 1.307-.785 2.56h5.068zm1.907.626h-6.761v.118c0 1.264.131 2.212.606 2.858.474.64 1.12.96 2.05.96.708 0 1.264-.106 1.717-.48.455-.369.748-.95.93-1.576h1.299c-.257.626-.734 1.716-1.428 2.233-.695.516-1.61.737-2.74.737-1.367 0-2.464-.47-3.295-1.371-.829-.9-1.243-2.107-1.243-3.595 0-1.478.407-2.672 1.222-3.576.816-.903 1.885-1.358 3.211-1.358 1.413 0 2.497.409 3.256 1.283.755.867 1.149 1.89 1.176 3.767zm9.544-5.007l2.393 7.457 2.112-6.205h-1.41V7.384h3.128v1.252h-.725L59.08 16.77h-1.346l-2.305-6.99-2.313 6.99h-1.292l-2.772-8.135h-.86V7.384h3.754v1.252h-1.222l2.092 6.205 2.41-7.457zm7.474 9.04V14.27h1.244c.023.626.242 1.208.654 1.551.415.345 1.025.514 1.835.514.728 0 1.282-.14 1.661-.413.384-.271.572-.671.572-1.192 0-.411-.138-.744-.416-.996-.28-.252-.867-.523-1.765-.81l-1.17-.396c-.802-.256-1.385-.583-1.745-.967-.36-.387-.543-.881-.543-1.478 0-.856.316-1.528.942-2.014.629-.487 1.497-.73 2.605-.73.492 0 .893.063 1.439.193.546.128.945.318 1.573.564v1.791h-.7c-.023-.624-.234-.95-.631-1.291-.401-.34-.943-.448-1.63-.448-.68 0-1.192.151-1.543.391-.348.24-.523.618-.523 1.098 0 .39.132.713.395.95.264.24.793.485 1.585.73l1.282.398c.888.277 1.525.622 1.914 1.036.391.415.587.944.587 1.597 0 .885-.34 1.584-1.017 2.09-.678.506-1.612.76-2.8.76-.605 0-1.35-.064-1.926-.192a12.256 12.256 0 0 1-1.879-.582"/></g></svg>