<?xml version="1.0" encoding="utf-8"?>
<!-- Generator: Adobe Illustrator 14.0.0, SVG Export Plug-In . SVG Version: 6.00 Build 43363)  -->
<!DOCTYPE svg PUBLIC "-//W3C//DTD SVG 1.1//EN" "http://www.w3.org/Graphics/SVG/1.1/DTD/svg11.dtd">
<svg version="1.1" id="Layer_1" xmlns="http://www.w3.org/2000/svg" xmlns:xlink="http://www.w3.org/1999/xlink" x="0px" y="0px"
	 width="200px" height="34px" viewBox="0 0 200 34" enable-background="new 0 0 200 34" xml:space="preserve">
<polygon fill="none" points="81.443,18.004 81.462,18.226 81.478,18.37 81.478,18.607 81.498,18.732 81.498,18.77 81.515,18.922 
	81.508,18.914 81.515,18.97 81.508,18.942 81.508,18.914 81.508,18.886 81.498,18.854 81.498,18.837 81.498,18.81 81.488,18.78 
	81.488,18.75 81.478,18.721 81.478,18.694 81.478,18.664 81.473,18.638 81.473,18.607 81.473,18.588 81.462,18.558 81.462,18.53 
	81.462,18.502 81.454,18.473 81.454,18.445 81.454,18.416 81.454,18.389 81.443,18.359 81.443,18.34 81.443,18.311 81.432,18.28 
	81.432,18.252 81.432,18.226 81.432,18.196 81.425,18.168 81.425,18.138 81.425,18.109 81.425,18.089 81.413,18.061 81.413,18.034 
	81.413,18.004 81.413,17.973 81.404,17.949 81.404,17.918 81.404,17.892 81.404,17.862 81.404,17.835 81.394,17.812 81.394,17.787 
	81.394,17.755 81.394,17.729 81.394,17.699 81.394,17.669 81.386,17.642 81.386,17.614 81.386,17.585 81.386,17.554 81.386,17.536 
	81.386,17.507 81.386,17.479 81.375,17.451 81.375,17.421 81.375,17.393 81.375,17.364 81.375,17.333 81.375,17.307 81.375,17.278 
	81.375,17.26 81.375,17.227 81.375,17.199 81.375,17.172 81.365,17.145 81.365,17.116 81.365,17.087 81.365,17.058 81.365,17.03 
	81.365,17 81.365,16.972 81.365,16.952 81.365,16.925 81.365,16.895 81.365,16.868 81.365,16.837 81.365,16.828 81.365,16.859 
	81.413,17.544 "/>
<path fill="none" d="M95.618,2.286l0.038-0.077h0.075l0.055,0.029l-0.009,0.01L95.73,2.295l-0.067,0.008L95.618,2.286z"/>
<path fill="none" d="M87.479,27.872h-0.038l-0.04-0.084h0.078l0.026,0.039L87.479,27.872z"/>
<path fill="none" d="M107.551,29.011l0.015,0.021l-0.169,0.122v0.019l0.03-0.007l-0.123,0.103l0.017-0.037l-0.067,0.058l-0.012-0.01
	l0.137-0.106l0.006-0.019l-0.119,0.058l0.228-0.171L107.551,29.011z M106.672,29.68l0.13-0.085l0.153-0.113l-0.018,0.025
	l-0.125,0.106l-0.17,0.132l0.009-0.018l0.04-0.048H106.672z M105.721,30.378l-0.379,0.241l0.153-0.105l0.21-0.135l0.182-0.133
	l0.162-0.142l0.019,0.014l-0.18,0.138L105.721,30.378z M107.121,29.404l-0.106,0.086l-0.097,0.086l-0.086,0.076l-0.123,0.065
	l0.056-0.046l0.075-0.059l0.05-0.056l0.135-0.106l-0.058,0.068l0.209-0.183L107.121,29.404z"/>
<path fill="none" d="M85.163,20.119l-0.172-0.191l-0.258-0.164l-0.038-0.161l0.095-0.048l-0.074-0.298h0.046l0.163,0.136v-0.066
	l0.046,0.007L85,19.326l0.039,0.115l0.049,0.113v0.115l0.007,0.017l-0.028,0.039l0.028,0.155l0.143,0.199L85.163,20.119z
	 M85.487,15.107l-0.046-0.26l0.122-0.036l0.156,0.201l0.019,0.231l-0.009,0.112l-0.078,0.031l-0.047,0.066L85.487,15.107z
	 M94.804,11.76l-0.07-0.018l-0.046,0.049h-0.104l0.007-0.114l0.116-0.078l-0.095-0.097l0.145,0.03l0.077,0.058l-0.067,0.086
	l0.094-0.049l0.094-0.022l0.008,0.128l-0.055,0.037L94.804,11.76z M93.625,14.477l-0.373,0.249l-0.162,0.296l0.036,0.42h-0.082
	l-0.337-0.288l0.078-0.171l-0.125-0.217l0.125-0.195h0.144l0.133-0.189l0.384-0.162l-0.059-0.097l0.422-0.163l0.077-0.171
	l0.313-0.068l0.413-0.074l0.325,0.063l0.209-0.076l0.192,0.021v0.172l-0.105,0.095l-0.414,0.06l-0.361,0.045l-0.48,0.193
	L93.625,14.477z M97.53,12.699l-0.096-0.078l0.16-0.277l0.123-0.105l0.155,0.191l0.222,0.354l0.047,0.365l-0.164,0.076l-0.238-0.097
	l-0.145-0.143L97.53,12.699z M98.609,13.293l-0.438,0.245l0.044-0.544l0.058-0.058l0.058,0.01l0.258,0.183L98.609,13.293z
	 M101.736,12.946l-0.162-0.238l0.027-0.143l0.174-0.163l0.374-0.125l0.19,0.247l-0.24,0.279l-0.038,0.182L101.736,12.946z
	 M102.329,12.295l-0.096-0.104l0.145-0.106l0.21-0.144l0.074,0.195l-0.103,0.103L102.329,12.295z M102.502,13.272l-0.063-0.194
	l0.063-0.123l0.208-0.02l0.089,0.058l-0.099,0.135l-0.182,0.144H102.502z M104.47,9.581l-0.009-0.095l0.086-0.136l0.046,0.01
	l0.096,0.137l0.029,0.142l0.029,0.134l-0.107-0.011l-0.15-0.161L104.47,9.581z M109.354,19.916l-0.198,0.022l0.03,0.305
	l-0.154-0.154l-0.146-0.249l-0.2-0.237l-0.095-0.221l-0.238-0.334l-0.271-0.144l-0.255-0.351l0.019-0.278l-0.142-0.06l0.028-0.104
	l0.161,0.116l0.241,0.182l0.2,0.247l0.239,0.163l0.452,0.229l-0.24,0.209l0.161,0.459l0.296,0.037L109.354,19.916z M109.625,16.13
	l-0.356-0.199l-0.554-0.346l-0.295-0.371l-0.096-0.268L108.2,14.84l0.037-0.315l-0.239-0.544l-0.211-0.47l-0.151-0.433l-0.382-0.36
	l-0.019,0.199l0.223,0.238l0.198,0.604l-0.384-0.096l-0.045,0.47l0.309,0.752l0.211-0.007l-0.091,0.431l-0.095,0.274l-0.182-0.17
	l-0.165,0.209l0.021,0.316l-0.333,0.44l-0.28,0.584l0.058,1.031l-0.037,1.255l0.248-0.211l0.202,0.085l0.173-0.096l-0.012-0.238
	l0.163-0.172l0.412,0.037l0.171,0.212l0.084,0.39l0.213,0.317l0.21,0.478l0.01,0.639l0.057,0.229l-0.048,0.546l-0.077,0.538
	l-0.027,0.255l-0.174,0.392l-0.113,0.125h-0.171l-0.176,0.42l0.01,0.116l-0.052-0.019l-0.051-0.125l0.092-0.095l-0.113-0.325
	l-0.152-0.165l0.114-0.247l0.24-0.172l-0.011-0.365l-0.094-0.341l0.011-0.167l-0.062-0.325l-0.228,0.363l-0.087,0.256l-0.275,0.259
	l-0.211-0.189l-0.316-0.01l-0.374,0.182l-0.209-0.23l-0.16-0.126l-0.139-0.076l-0.268-0.218h-0.22l-0.326,0.103l-0.255,0.183
	l-0.212,0.212l-0.1,0.256l0.138,0.01l0.088,0.184l-0.076,0.161l-0.059,0.451l0.059,0.141l-0.232,0.365l-0.303,0.028l-0.26,0.151
	l-0.163-0.047l-0.143,0.027l-0.269,0.386l-0.295,0.18l-0.192,0.172l-0.325,0.056l-0.222,0.086l-0.189-0.123l-0.27-0.089l-0.256,0.03
	l-0.299,0.136l-0.228,0.123l-0.373-0.065l-0.095-0.25l-0.298-0.029h-0.23l-0.292-0.103l-0.221,0.41l0.121,0.19l-0.227,0.278
	l-0.375-0.046l-0.259,0.007l-0.181-0.151l-0.267,0.019l-0.228-0.106L97.53,24.7l-0.498,0.295l-0.28,0.058l-0.103,0.021l-0.126-0.22
	l-0.344,0.026l-0.098-0.163l-0.181-0.086l-0.104-0.208l-0.135-0.086l-0.372,0.048l-0.328-0.257l-0.151,0.161l-0.411-1.012
	l-0.25-0.355l0.106-0.095l-0.641,0.199l-0.229-0.047l0.069-0.189l-0.27-0.21l-0.25,0.008l0.029-0.392l-0.365-0.219l-0.235,0.075
	l-0.576-0.105l-0.132,0.039l-0.813-0.268l-0.136,0.056l0.059,0.31l-0.229-0.021v0.105l-0.259,0.046l0.248,0.414l-0.114,0.123
	l-0.291-0.194l-0.101,0.059L89.83,22.29l-0.324-0.201l-0.27-0.017l-0.171-0.288l-0.305-0.527l-0.289-0.229l-0.536-0.011
	l-0.144,0.192l-0.074-0.333l-0.316,0.172l0.018,0.104l-0.218,0.105l0.048,0.324l0.135,0.116l0.017,0.288l-0.088,0.125l0.071,0.122
	l-0.164,0.078l-0.204-0.125l-0.228,0.06l-0.086,0.017l0.049,0.401l-0.059,0.08l-0.04,0.064l0.04,0.27l0.03,0.219l-0.155-0.02
	l-0.065,0.029l-0.075-0.107l-0.06-0.268l-0.049-0.056l-0.087-0.184l-0.007-0.149l-0.134-0.23l-0.05-0.029l-0.074-0.049l-0.009-0.074
	l-0.166-0.385l-0.221-0.333l-0.103-0.209l-0.029,0.008l-0.077-0.45l-0.108-0.324l-0.038-0.308l0.126,0.116l0.251-0.019l-0.023-0.209
	l0.27,0.199l0.038-0.058l-0.151-0.142l0.079-0.098l0.113,0.04l0.15,0.162l0.079-0.047l0.058-0.173l0.152-0.058l0.047-0.077
	l-0.154-0.352l-0.076-0.108l0.011-0.229L86.053,19l-0.085-0.326l0.036-0.037l0.038-0.173L85.959,18.3l0.055-0.086h0.067l0.048-0.259
	l-0.131-0.169l-0.03-0.066L85.9,17.729l-0.029-0.087l0.108-0.191l0.047-0.114l0.037,0.01l0.074,0.162l0.089,0.02l0.026-0.115
	l-0.033-0.165l0.042-0.026v-0.124l0.088-0.259l0.084-0.03l0.098-0.124l-0.037-0.219L86.429,16.4l0.034-0.086l-0.029-0.241
	l0.117-0.191l0.116-0.113l0.019-0.135h0.115l0.208-0.258l0.213-0.011l0.029-0.054l0.236,0.054l0.047-0.276l0.52,0.038h0.229
	l0.173-0.065l0.076-0.375l0.222-0.093l0.14-0.296l0.305-0.117l0.26-0.411l0.299-0.069l0.104-0.331l0.228-0.144l0.078,0.075
	l0.237,0.096l0.172,0.028l-0.066,0.327l0.135,0.351v0.729l-0.057,0.22l-0.173,0.192l-0.259,0.028l-0.23-0.117l-0.162-0.745
	l-0.098-0.058l-0.083,0.394l-0.125,0.124l-0.278,0.279l0.032,0.244l0.011,0.173l0.142-0.113l0.057-0.19l0.162-0.019l0.065,0.469
	l0.155,0.036l0.123-0.287l0.5-0.019l0.076,0.123l0.008,0.212l0.24-0.145l0.065-0.278l0.212-0.121l0.089-0.27l0.198,0.383
	l-0.079,0.229l-0.171-0.084l-0.141,0.17v0.184l0.226,0.094l0.185-0.181l0.352,0.036l0.6,0.022l0.081,0.076l-0.259,0.136l0.132,0.132
	l0.154-0.058l0.237,0.134l0.27-0.041l0.029,0.306l0.276-0.161l-0.029-0.288l0.133-0.086l0.316,0.294l0.127,0.203l0.324,0.65
	l0.163-0.172l-0.068-0.259L94.2,16.6l-0.142-0.105l0.113-0.161l0.048-0.335l0.047-0.124l0.366-0.269l0.202-0.327l0.115-0.044
	l0.276,0.199l-0.046,0.228l-0.215,0.287l0.042,0.155L94.963,16.4l-0.192,0.544l0.089,0.288l-0.134,0.249l-0.469,0.474l0.163,0.118
	l0.107-0.124l0.199-0.047l0.093-0.191l0.185-0.163l-0.028-0.251l0.134-0.248l-0.155-0.075l0.028-0.239l0.218-0.375l-0.076-0.371
	l0.298-0.211l0.048-0.297h0.06l0.008,0.238l-0.143,0.385l0.123,0.106l0.012-0.309l0.237-0.113l0.268,0.029l0.203,0.277l-0.067-0.366
	l0.058-0.439l0.219-0.055l0.278,0.044l0.25-0.036l-0.08-0.221l0.144-0.27l0.124-0.007l0.212-0.202l0.266-0.066l0.03-0.114
	l0.257-0.057l0.098,0.085l0.189-0.241l0.187-0.026l-0.012-0.172l0.045-0.191l0.174-0.208l0.182,0.094l-0.087,0.123l0.219,0.009
	l0.078,0.192l0.057-0.124l0.267-0.077l0.277,0.104l0.134,0.114l0.058,0.211l-0.058,0.152l-0.179,0.316l-0.04,0.144l0.154,0.01
	l0.191,0.039l0.063-0.115l0.165,0.229v-0.127l0.144-0.121l0.362-0.098l0.117,0.152l0.45-0.178l-0.156-0.279l0.242-0.064l0.146-0.109
	l0.277,0.07l0.198,0.182l0.038,0.179l0.318,0.171h0.255l-0.171-0.409l0.258,0.009l0.079-0.217l0.253-0.078l-0.017-0.155l0.177-0.103
	l-0.338-0.202l-0.029-0.227l0.794-0.662l0.239,0.057l0.39-0.105l0.133-0.468L104.396,12l0.171-0.019l0.241,0.155l0.141-0.099
	l-0.019-0.19l0.04-0.22l0.125-0.192v-0.249l0.332-0.095l-0.094-0.193l-0.228,0.019l-0.145-0.104l0.122-0.342l-0.01-0.259
	l0.157-0.307l0.131-0.132l0.222-0.25l0.268-0.277l0.199,0.038l0.057-0.075h-0.219l-0.027-0.344l0.207-0.222l0.174,0.146l0.083,0.229
	l0.297,0.047l0.08,0.067l0.018,0.131l-0.076,0.086l-0.061,0.173h-0.123l-0.026,0.135l0.064,0.161l-0.104,0.05l-0.125-0.058
	l0.096,0.18l0.146-0.02l0.141,0.115l0.151,0.22l-0.019,0.182l0.167-0.076l0.235-0.019l0.079-0.04l0.113,0.021l0.085,0.057
	l-0.048,0.268l0.239,0.527l0.029,0.152l0.192,0.335l0.161,0.325l0.125,0.125l-0.222,0.144l0.162,0.552l-0.111,0.021l0.083,0.229
	l-0.083,0.202l0.171,0.171l0.212,0.374l0.104,0.066l0.104-0.162l0.375,0.267l-0.041,0.181l0.192,0.231l0.125-0.009l0.038,0.43
	l0.241,0.267l-0.028,0.345l0.207,0.247l0.098,0.473L109.625,16.13z"/>
<polygon fill="none" points="82.188,11.961 82.188,11.97 82.198,11.961 82.198,11.933 "/>
<path fill="none" d="M107.542,8.224l0.074,0.094l-0.011,0.097l-0.04,0.086l-0.093-0.161l-0.029-0.117H107.542z M107.139,6.399
	l0.181,0.142v0.078l-0.086,0.017l-0.164-0.134l-0.085-0.076l-0.047-0.095l0.018-0.057L107.139,6.399z M92.995,1.558l-0.049,0.021
	l0.012-0.011h0.019L92.995,1.558z"/>
<g>
	<polygon fill="#FFFFFF" points="95.776,2.248 95.786,2.237 95.73,2.208 95.656,2.208 95.618,2.286 95.663,2.303 95.73,2.295 	"/>
	<polygon fill="#FFFFFF" points="97.823,5.536 97.878,5.562 98.025,5.608 98.054,5.432 98.032,5.306 97.942,5.206 97.906,5.218 
		97.897,5.13 97.703,5.098 97.627,5.108 97.596,5.196 97.681,5.275 97.762,5.285 97.726,5.402 	"/>
	<polygon fill="#FFFFFF" points="98.312,4.512 98.109,4.524 98.018,4.737 97.995,4.871 98.071,5.088 98.124,5.008 98.218,5.031 
		98.375,4.973 98.499,5 98.573,4.715 98.458,4.598 	"/>
	<polygon fill="#FFFFFF" points="97.335,4.36 97.154,4.332 96.942,4.341 96.665,4.397 96.523,4.388 96.379,4.463 96.299,4.565 
		96.364,4.698 96.508,4.791 96.689,4.789 96.877,4.749 97.01,4.696 97.248,4.712 97.29,4.756 97.38,4.807 97.361,4.893 97.47,4.999 
		97.642,5.009 97.729,5.093 97.95,5.13 98.023,4.97 97.903,4.862 97.729,4.805 97.661,4.726 97.661,4.61 97.627,4.448 	"/>
	<polygon fill="#FFFFFF" points="97.736,4.384 97.648,4.517 97.686,4.617 97.791,4.75 97.983,4.678 98.08,4.516 97.924,4.424 	"/>
	<polygon fill="#FFFFFF" points="99.277,5.548 99.171,5.362 98.938,5.386 98.837,5.504 98.923,5.573 98.733,5.609 98.852,5.752 
		98.904,5.802 99.065,5.733 99.111,5.631 99.07,5.619 99.116,5.622 	"/>
	<polygon fill="#FFFFFF" points="98.366,5.409 98.28,5.312 98.075,5.229 98.076,5.422 98.107,5.573 98.298,5.721 98.477,5.817 
		98.527,5.63 98.477,5.568 98.628,5.485 	"/>
	<polygon fill="#FFFFFF" points="96.101,6.941 96.231,6.943 96.948,6.757 97.02,6.674 97.029,6.601 97.038,6.613 97.143,6.631 
		97.217,6.501 97.303,6.462 97.374,6.454 97.482,6.371 97.688,6.199 97.664,6.13 97.699,6.125 97.773,6.015 97.835,5.877 
		97.815,5.739 97.729,5.605 97.674,5.6 97.69,5.466 97.602,5.324 97.416,5.278 97.243,5.299 97.222,5.332 97.172,5.314 
		97.258,5.278 97.212,5.09 97.372,5.031 97.339,4.833 97.14,4.82 96.989,4.798 96.742,4.856 96.479,4.816 96.236,5.034 96.241,5.17 
		96.41,5.134 96.346,5.2 96.335,5.305 96.252,5.388 96.183,5.536 96.285,5.649 96.247,5.725 96.182,5.75 96.162,5.822 96.026,5.902 
		96.026,6.164 95.976,6.261 95.904,6.573 95.889,6.794 95.947,6.899 	"/>
	<path fill="#FFFFFF" d="M90.11,3.032l0.57-0.253l-0.006,0.132l0.095-0.053l0.177,0.04l0.268-0.077L91.52,2.79l0.289-0.113
		l0.417-0.021l0.357,0.011l0.34,0.03l0.241,0.043l0.079-0.125l0.05-0.146l0.476-0.124l0.128,0.099l0.083,0.104l0.303-0.07l0.5,0.056
		l0.114-0.069l0.156-0.017l0.288-0.02l0.163-0.08l-0.166-0.226l-0.081-0.063l0.25-0.129L95.106,1.83L94.985,1.73l0.165-0.088
		L95.661,1.5l-0.382-0.047l-0.07-0.071l0.125-0.033l0.3,0.008l0.159,0.054l0.058,0.037l-0.013,0.097l0.566-0.033l0.572,0.068
		l0.536,0.075l0.236-0.019l0.135,0.178l0.23,0.026l-0.087,0.138L97.638,2.2l-0.204,0.023L97.409,2.32l-0.083,0.053l-0.209,0.006
		l-0.208,0.119l-0.102,0.143l0.024-0.186l0.293-0.169L96.727,2.32l-0.073-0.083L96.286,2.42l-0.072-0.041l0.245-0.134L96.361,2.15
		l-0.137,0.01l-0.216,0.114v0.089l-0.08-0.002l-0.25,0.131l0.339,0.047l0.235,0.09l0.327,0.048l0.035,0.055l0.117,0.008
		l-0.014,0.033l-0.326,0.008l-0.29,0.174v0.125l0.096,0.073l-0.061,0.089l0.102,0.163l-0.236,0.061l-0.038,0.05L95.87,3.479
		l-0.11,0.009l-0.1-0.057l0.108-0.091l-0.25-0.008l0.112-0.048l0.024-0.153l-0.098-0.119l-0.176,0.052l-0.113,0.143l0.046,0.114
		l-0.181-0.029l-0.111-0.07l0.09-0.167l0.021-0.135l-0.012-0.007l0.176-0.054l0.301-0.053l0.097-0.201L95.471,2.56l-0.507,0.128
		l0.007,0.008l-0.152-0.012l-0.183-0.004l0.028-0.062l-0.296-0.008L93.98,2.632L93.4,2.753l0.177,0.091l0.014,0.005l-0.206,0.026
		l0.049,0.181l0.221,0.102l0.335,0.013l0.186,0.035l-0.098,0.072l-0.563-0.056l-0.11,0.308l0.083,0.174l0.227-0.086l0.299,0.074
		l0.226-0.037l0.246,0.003l-0.138,0.119l0.279,0.155l0.172,0.046l0.31-0.009l0.193,0.101l0.172-0.087l0.036,0.054l0.293,0.09
		l0.039,0.136l0.243,0.099l0.259-0.009l0.087-0.111l0.104,0.091l0.294-0.137l0.058-0.125l0.034,0.042l-0.099,0.215l0.363-0.091
		l0.144-0.112l0.088-0.226L97.383,3.63l-0.008-0.05l-0.167-0.102L96.83,3.424l-0.018-0.191l0.074-0.147l0.093-0.096l0.086,0.068
		l-0.029,0.133l0.207,0.17l0.126-0.109l-0.005,0.123l0.179,0.037L97.474,3.47l0.174,0.267l0.135,0.114l-0.084,0.094l-0.156,0.066
		l-0.226,0.268l0.27,0.081l0.228,0.02l0.127-0.061l0.102-0.286l0.096,0.08l-0.094,0.077l0.04,0.135l0.211-0.012l0.116,0.075
		l0.218-0.122L98.582,4.16l0.147,0.046l0.063-0.137l-0.247-0.224l-0.068-0.099l-0.145-0.045l-0.234,0.076l0.105-0.294l0.169,0.102
		l0.327-0.169l-0.231-0.16l0.063-0.009l0.007-0.103l0.357,0.028l0.197,0.112l0.15,0.021l0.074,0.108l0.01,0.012l-0.118-0.056
		l-0.243-0.076l-0.12,0.103l0.025,0.039l-0.22,0.127l0.224,0.155l0.144,0.12l-0.019,0.121l-0.007,0.21l-0.185,0.138l0.102,0.118
		l0.177,0.036l0.273-0.073l0.019-0.187l-0.003,0.078l0.082,0.143l0.181-0.069l0.078,0.142l0.154,0.01l0.114,0.302l0.054,0.107
		l0.226,0.126l0.093,0.091l0.385,0.221l0.042-0.249l0.178-0.066l0.366-0.157l-0.153-0.238l0.039-0.139l-0.433-0.068l-0.042,0.046
		L100.6,4.346l0.108,0.01l-0.017-0.172l-0.154-0.068l0.189,0.038l-0.051-0.247l0.124,0.081l0.211,0.166l0.101,0.148l0.154,0.103
		l0.106-0.033l0.076,0.022l-0.144,0.156l0.33-0.022l0.008,0.21l0.094,0.091l0.124-0.057l0.064,0.003l-0.013,0.098l0.254,0.09
		l0.224,0.054l0.118,0.114l0.206,0.07l0.156,0.019l0.067,0.073l0.035,0.171l0.218,0.468l0.151,0.096l0.138,0.25l0.071,0.226
		l0.105,0.086l0.027,0.093l-0.077,0.011l0.105,0.311l0.029,0.198l0.253,0.131l0.026,0.086l0.524,0.397l0.169,0.023l0.179,0.12
		l0.1,0.206l0.252,0.105l0.044-0.21l0.078-0.1l0.12-0.09l0.124-0.205l0.062,0.127l-0.112,0.021l0.046,0.144l0.261,0.301
		c0,0,0.146,0.235,0.227,0.231c0.06-0.003,0.143-0.19,0.143-0.19l0.114-0.057l-0.012-0.221l-0.112-0.199l0.021-0.124l-0.103-0.049
		l-0.009-0.009l0.015-0.113l0.059-0.009l0.104,0.082l0.029,0.097l0.163,0.111v0.085l0.085,0.129l0.171,0.068l0.205,0.127
		l0.206,0.091l0.078-0.104l0.143,0.007l0.035,0.139l0.144,0.253l0.078-0.17l0.018-0.13l-0.102-0.129h-0.148l0.015-0.087l0.082-0.136
		l-0.138-0.204l0.064,0.003l0.236,0.004l-0.08-0.164l-0.135-0.125c0,0,0.111-0.032,0.109-0.065c-0.003-0.037-0.14-0.059-0.14-0.059
		s0.07-0.063,0.064-0.091c-0.008-0.042-0.145-0.092-0.145-0.092l0.008-0.03l-0.029-0.03l0.151,0.029l1.25,1.287l0.098-0.075
		l-0.218-0.349l-0.433-0.49l-0.237-0.306l-0.139-0.07l-0.244-0.247l-0.134-0.046l-0.151-0.148l-0.005-0.006l0.103-0.021V6.517
		l-0.439-0.321l-0.042,0.137l0.072,0.131l-0.183-0.096l-0.034,0.1l-0.325-0.204l0.207-0.125l-0.175-0.108l-0.199,0.011l-0.118-0.25
		l-0.088-0.102l-0.136,0.049l-0.133-0.105l-0.037-0.146l-0.124-0.26l-0.184-0.172l-0.137-0.216l-0.079-0.108l-0.088-0.272
		l-0.109-0.156l-0.313-0.258l0.061-0.091l-0.067-0.167c0,0,0.085-0.054,0.087-0.085c0.001-0.043-0.111-0.132-0.111-0.132
		l0.053-0.035l-0.106-0.167c0,0,0.079-0.032,0.08-0.056c0.001-0.039-0.119-0.1-0.119-0.1l0.017-0.059l0.212,0.102l-0.027-0.148
		l-0.158-0.11c0,0-0.297-0.169-0.274-0.262c0.001-0.005,0.135,0.012,0.179,0.024c0.09,0.026,0.34,0.134,0.34,0.134l0.187,0.094
		l-0.225-0.211l0.005-0.008l-1.188-0.512c0,0-3.406-1.198-5.587-1.335c-0.796-0.051-2.833,0.107-3.189,0.18
		c-0.927,0.188-2.759,0.704-3.63,1.077c-0.377,0.162-1.449,0.778-1.449,0.778v0.138l0.168-0.045L90.11,3.032z M99.896,3.355
		l0.083,0.133h0.142l0.354,0.094l0.063,0.036l-0.125,0.011l-0.265-0.069l-0.311-0.064l0.068-0.023l-0.09-0.1L99.896,3.355z"/>
	<polygon fill="#FFFFFF" points="99.328,5.624 99.545,5.641 99.654,5.691 99.943,5.619 100.269,5.515 100.157,5.341 99.978,5.308 
		99.761,5.335 99.674,5.306 100.006,5.103 99.866,4.974 99.647,4.905 99.683,4.901 99.758,4.752 99.551,4.696 99.258,4.714 
		98.896,4.653 98.777,4.777 98.733,4.956 98.874,5.002 98.926,4.993 98.926,5.023 98.89,5.166 99.013,5.259 99.195,5.164 
		99.179,4.955 99.231,4.98 99.31,5.146 99.52,5.341 99.655,5.311 99.537,5.369 	"/>
	<polygon fill="#FFFFFF" points="104.998,3.58 104.712,3.593 105.004,3.768 105.059,3.834 105.163,3.834 105.23,3.75 105.178,3.676 
		105.178,3.62 105.12,3.53 104.933,3.361 	"/>
	<polygon fill="#FFFFFF" points="82.716,19.182 82.702,18.94 82.54,18.983 82.613,19.364 82.775,19.784 82.901,19.719 82.84,19.593 
			"/>
	<polygon fill="#FFFFFF" points="95.934,6.608 95.858,6.488 95.965,6.211 95.969,6.202 95.955,6.028 95.716,5.959 96.119,5.563 
		96.074,5.402 95.702,5.35 95.866,5.222 95.421,5.025 94.996,5.213 94.813,5.278 94.498,5.101 94.262,5.156 93.761,4.925 
		93.666,4.903 93.603,4.672 93.414,4.685 93.348,4.763 93.216,4.763 93.323,4.69 93.096,4.415 92.874,4.448 92.729,4.678 
		92.636,4.558 92.733,4.402 92.617,4.131 92.476,4.131 92.398,4.016 92.06,4.005 91.701,3.89 90.807,3.94 90.527,4.135 
		90.202,4.226 89.972,4.424 90.112,4.575 90.22,4.681 90.391,4.702 90.366,4.891 90.595,5.065 90.622,5.156 90.404,5.518 
		90.354,5.827 90.501,6.042 90.518,6.144 90.436,6.254 90.299,6.581 90.34,6.928 90.465,7.323 90.604,7.126 90.544,7.351 
		90.874,7.351 91.118,7.263 90.989,7.354 91.249,7.391 91.428,7.342 91.414,7.369 91.381,7.554 91.542,7.625 91.644,7.583 
		91.584,7.75 91.939,7.681 91.931,7.75 92.286,7.783 92.499,7.702 92.523,7.773 92.466,7.951 92.805,7.892 93.65,8.207 
		93.938,8.531 94.155,8.506 94.301,8.353 94.236,8.045 94.49,8.082 94.626,8.232 95.077,8.074 95.323,7.805 95.404,7.656 
		95.338,7.563 95.447,7.479 95.402,7.213 95.304,7.125 95.504,7.135 95.486,6.958 95.556,6.985 	"/>
	<path fill="#FFFFFF" d="M88.523,8.253l0.269-0.162l0.195,0.021l0.129-0.259l-0.06-0.19l0.161-0.152l-0.062-0.186l0.276-0.16
		c0,0,0.09-0.175,0.071-0.233c-0.017-0.056-0.186-0.141-0.186-0.141l-0.221,0.251l0.114-0.335L88.835,7.06l-0.053-0.148
		l-0.327,0.434c0,0-0.125,0.127-0.145,0.183c-0.041,0.127,0.017,0.533,0.017,0.533L88.523,8.253z"/>
	<polygon fill="#FFFFFF" points="82.369,15.169 82.616,14.941 82.709,14.693 82.828,14.662 82.984,14.471 82.894,14.323 
		82.783,14.323 82.676,14.486 82.676,14.25 82.523,14.563 82.366,14.741 82.332,14.899 82.369,14.953 	"/>
	<polygon fill="#FFFFFF" points="110.168,22.561 110.157,22.343 110.056,22.146 110.091,21.747 110.093,21.733 110.001,21.561 
		109.702,21.339 109.685,21.37 109.639,21.1 109.95,20.92 109.941,20.5 110.1,20.107 109.818,19.823 109.783,20.143 109.681,20.229 
		109.535,20.31 109.168,20.321 109.265,20.625 109.407,20.967 109.259,21.187 109.293,21.496 109.485,21.735 109.529,21.67 
		109.54,21.913 109.688,22.106 109.721,22.466 109.51,23.148 109.349,23.203 109.308,23.786 109.11,23.962 108.748,24.419 
		108.645,24.714 108.47,25.028 108.438,25.134 108.404,25.166 108.429,25.16 108.404,25.242 108.188,25.533 108.394,25.611 
		108.491,25.567 108.483,25.762 108.691,25.716 108.813,25.497 108.859,25.028 108.86,25.017 108.869,25.044 109.086,24.932 
		109.104,24.753 109.179,24.625 109.28,24.593 109.363,24.308 109.567,24.208 109.746,23.679 110.042,23.285 110.215,22.913 
		110.25,22.62 	"/>
	<path fill="#FFFFFF" d="M93.269,9.776c-0.09-0.01-0.33,0.151-0.33,0.151l-0.297,0.229l-0.082,0.13l-0.143-0.019l-0.225,0.296
		l0.081,0.142l0.339-0.088l0.083,0.029l0.284-0.066l0.236,0.105l0.126-0.206l0.008,0.18l0.149,0.187l0.293-0.024l0.082-0.218
		l0.038-0.238h-0.11l0.041-0.079l-0.225-0.183l-0.105-0.141C93.512,9.962,93.345,9.785,93.269,9.776z"/>
	<polygon fill="#FFFFFF" points="92.971,10.92 93.132,10.795 92.913,10.628 92.795,10.738 92.67,10.738 92.615,10.977 
		92.922,11.097 	"/>
	<polygon fill="#FFFFFF" points="107.565,28.95 107.464,29.002 107.358,29.083 107.346,29.09 107.387,29.028 106.911,29.318 
		106.836,29.369 106.902,29.317 107.029,29.117 106.954,29.106 106.983,29.048 106.89,29 106.793,29.106 106.646,29.182 
		106.492,29.278 106.376,29.456 106.326,29.597 106.226,29.639 106.205,29.776 106.273,29.802 106.05,29.946 106.098,30.253 
		106.745,29.786 106.75,29.786 107.645,29.067 107.645,28.952 	"/>
	<polygon fill="#FFFFFF" points="104.594,9.36 104.547,9.35 104.461,9.486 104.47,9.581 104.491,9.602 104.641,9.762 104.748,9.773 
		104.719,9.639 104.69,9.497 	"/>
	<polygon fill="#FFFFFF" points="102.661,12.137 102.587,11.942 102.377,12.086 102.232,12.192 102.329,12.295 102.559,12.239 	"/>
	<polygon fill="#FFFFFF" points="101.775,12.402 101.602,12.565 101.574,12.708 101.736,12.946 102.062,12.986 102.099,12.804 
		102.339,12.525 102.149,12.278 	"/>
	<polygon fill="#FFFFFF" points="102.519,13.272 102.7,13.128 102.799,12.994 102.71,12.936 102.502,12.956 102.439,13.079 
		102.502,13.272 	"/>
	<polygon fill="#FFFFFF" points="109.241,19.753 108.945,19.716 108.784,19.257 109.024,19.047 108.572,18.818 108.333,18.655 
		108.133,18.408 107.893,18.226 107.731,18.11 107.704,18.214 107.846,18.274 107.827,18.552 108.083,18.903 108.354,19.047 
		108.591,19.381 108.686,19.603 108.886,19.84 109.032,20.089 109.186,20.243 109.156,19.938 109.354,19.916 	"/>
	<polygon fill="#FFFFFF" points="97.593,12.986 97.738,13.128 97.977,13.226 98.141,13.15 98.094,12.785 97.872,12.43 
		97.716,12.239 97.593,12.344 97.434,12.621 97.53,12.699 	"/>
	<polygon fill="#FFFFFF" points="94.583,11.791 94.688,11.791 94.734,11.742 94.804,11.76 94.908,11.771 94.963,11.734 
		94.955,11.606 94.86,11.628 94.766,11.677 94.833,11.59 94.757,11.532 94.612,11.502 94.707,11.599 94.591,11.677 	"/>
	<polygon fill="#FFFFFF" points="98.273,12.936 98.215,12.994 98.171,13.538 98.609,13.293 98.589,13.128 98.332,12.946 	"/>
	<polygon fill="#FFFFFF" points="93.625,14.477 93.978,14.22 94.458,14.027 94.819,13.981 95.233,13.922 95.339,13.827 
		95.339,13.655 95.146,13.634 94.938,13.71 94.612,13.647 94.2,13.721 93.886,13.79 93.81,13.96 93.388,14.124 93.446,14.22 
		93.062,14.382 92.929,14.571 92.786,14.571 92.661,14.766 92.786,14.983 92.708,15.154 93.045,15.442 93.126,15.442 93.09,15.022 
		93.252,14.726 	"/>
	<polygon fill="#FFFFFF" points="106.562,28.969 106.686,28.756 106.829,28.427 106.897,28.223 106.672,28.292 106.469,28.555 
		106.31,28.809 106.37,28.94 	"/>
	<polygon fill="#FFFFFF" points="106.98,8.691 106.859,8.536 106.75,8.501 106.765,8.693 106.71,8.809 106.77,8.906 106.731,9.014 
		106.932,9.063 106.971,8.983 106.924,8.85 106.945,8.81 	"/>
	<g>
		<polygon fill="#FFFFFF" points="107.841,23.086 107.838,23.077 107.829,23.099 		"/>
		<rect x="107.963" y="22.776" fill="#FFFFFF" width="0.17" height="0"/>
		<rect x="89.863" y="15.449" fill="#FFFFFF" width="0.001" height="0.312"/>
		<polygon fill="#FFFFFF" points="89.926,15.153 89.764,14.41 89.666,14.352 89.666,14.352 89.763,14.41 89.925,15.154 
			90.155,15.271 90.414,15.243 90.414,15.243 90.155,15.271 		"/>
		<rect x="91.148" y="15.437" fill="#FFFFFF" width="0.002" height="0.191"/>
		<polygon fill="#FFFFFF" points="90.509,15.778 90.509,15.778 90.75,15.632 90.814,15.355 91.026,15.234 91.116,14.965 
			91.115,14.964 91.026,15.234 90.814,15.355 90.749,15.633 		"/>
		<polygon fill="#FFFFFF" points="89.364,15.452 89.421,15.262 89.42,15.262 89.363,15.453 89.222,15.565 89.222,15.565 		"/>
		<path fill="#FFFFFF" d="M107.972,24.663l-0.255-0.101l0.002-0.018h-0.048l-0.047-0.019l-0.002,0.019H107.5l-0.042,0.014
			l-0.023-0.076l0.058-0.117l0.121-0.151l0.06-0.154l0.017-0.068l0.096-0.161l-0.088-0.179l0.021-0.117l0.042-0.145l0.06-0.038
			l0.004,0.001l-0.001-0.002l0.082-0.05l-0.111-0.041l0.004,0.05l-0.052-0.018l-0.05-0.125l0.092-0.095l-0.113-0.326l-0.152-0.164
			l0.114-0.247l0.241-0.171l-0.012-0.366l-0.094-0.34l0.011-0.167l-0.062-0.325l-0.227,0.364l-0.088,0.256l-0.275,0.258l-0.21-0.188
			l-0.316-0.01l-0.374,0.182l-0.209-0.23l-0.16-0.127l-0.139-0.076l-0.268-0.217h-0.22l-0.326,0.103l-0.256,0.182l-0.211,0.212
			l-0.1,0.256l0.138,0.011l0.088,0.183l-0.076,0.161l-0.059,0.452l0.059,0.141l-0.232,0.365l-0.304,0.027l-0.259,0.151l-0.163-0.046
			l-0.144,0.027l-0.268,0.385l-0.296,0.181l-0.192,0.171l-0.324,0.057l-0.222,0.085l-0.19-0.122l-0.27-0.09l-0.257,0.03
			l-0.298,0.137l-0.228,0.121l-0.372-0.065l-0.095-0.25l-0.298-0.028h-0.23l-0.292-0.104l-0.221,0.41l0.121,0.19l-0.227,0.278
			l-0.375-0.046l-0.259,0.006l-0.181-0.151l-0.267,0.02l-0.228-0.107l-0.392,0.184l-0.499,0.294l-0.279,0.059l-0.103,0.021
			l-0.126-0.221l-0.344,0.027l-0.098-0.163l-0.181-0.086l-0.104-0.209l-0.135-0.085l-0.372,0.047l-0.328-0.256l-0.151,0.16
			l-0.411-1.012l-0.25-0.355l0.106-0.095l-0.641,0.2l-0.229-0.047l0.069-0.189l-0.27-0.211l-0.25,0.008l0.028-0.391l-0.365-0.22
			l-0.234,0.076l-0.576-0.105l-0.132,0.038l-0.813-0.268l-0.136,0.057l0.059,0.31L90.54,22.06v0.106l-0.259,0.046l0.247,0.414
			l-0.113,0.122l-0.291-0.194l-0.101,0.059l-0.193-0.325l-0.324-0.2l-0.269-0.017l-0.171-0.288l-0.305-0.528l-0.289-0.228
			l-0.536-0.011l-0.144,0.192l-0.074-0.333l-0.316,0.171l0.018,0.104l-0.218,0.106l0.048,0.324l0.135,0.117l0.017,0.287
			l-0.088,0.126l0.071,0.121l-0.044,0.021l0.009,0.017l0.22,0.116l0.261,0.069l0.121,0.188l0.196,0.137l-0.038,0.162l-0.115,0.179
			l-0.355-0.273l-0.09,0.173l-0.179-0.19l-0.083,0.17l0.093,0.171l-0.018,0.312l0.201,0.277v0.082l-0.1,0.117h-0.008l-0.002,0.1
			h0.002v0.217l-0.135,0.181l0.125,0.13l-0.108,0.11l0.14,0.227l-0.101,0.187l-0.012,0.182l-0.602-0.483l-0.102-0.233l-0.182-0.226
			l0.022-0.264l0.256-0.159l0.255,0.196l-0.083-0.268l-0.083-0.102l-0.031-0.248l-0.054-0.25l-0.044-0.005l0.006,0.047l-0.155-0.021
			l-0.065,0.029l-0.075-0.106l-0.059-0.268l-0.049-0.057l-0.087-0.183l-0.007-0.149l-0.134-0.231l-0.05-0.028l-0.074-0.05
			l-0.01-0.074l-0.165-0.384l-0.221-0.333l-0.103-0.209l-0.029,0.008l-0.008-0.048l-0.042,0.012l0.013,0.182l0.077,0.147
			l0.033,0.185l-0.032,0.172l-0.001,0.005l-0.038,0.035l-0.208-0.116l-0.122-0.194l-0.186-0.205l-0.156-0.379l-0.375-0.896
			l-0.172-0.203l-0.227-0.142l-0.189-0.485l-0.047-0.252l0.076-0.257l0.263-0.038l0.131-0.078l0.143,0.098l0.048-0.074l0.284-0.013
			l0.086,0.116l-0.053,0.08l0.147,0.393l-0.011,0.067l0.02,0.016l0.032,0.007v0.02l0.001,0.002v-0.066l0.045,0.007L85,19.326
			l0.039,0.114l0.049,0.113v0.116l0.007,0.017l-0.027,0.038l0.01,0.057l0.004,0.013l0.097-0.149l0.125,0.062l0.122,0.184
			l0.149,0.059l0.156,0.168l0.033-0.041l0.116,0.109l-0.037,0.057l0,0l0.038-0.058l-0.151-0.142l0.079-0.097l0.113,0.04l0.149,0.162
			L86.15,20.1l0.058-0.174l0.151-0.057l0.048-0.078l-0.154-0.352l-0.076-0.107l0.01-0.229L86.054,19l-0.085-0.325l0.036-0.038
			l0.038-0.173L85.959,18.3l0.056-0.087h0.067l0.047-0.259l-0.131-0.169l-0.03-0.066l-0.068,0.009l-0.03-0.086l0.108-0.191
			l0.048-0.114l0.037,0.01l0.074,0.161l0.089,0.021l0.026-0.116l-0.033-0.164l0.042-0.026v-0.125l0.087-0.259l0.084-0.029
			l0.098-0.125l-0.037-0.218L86.429,16.4l0.034-0.086l-0.029-0.242l0.117-0.19l0.116-0.114l0.019-0.135h0.115l0.208-0.257
			l0.213-0.012l0.028-0.053l0.044,0.01l0.007-0.017l-0.093-0.171l-0.028-0.213l-0.14-0.202l-0.18-0.184l-0.2,0.164l-0.062,0.23
			l0.025,0.018l-0.092,0.06l-0.171,0.1l-0.029-0.074l0.154-0.304l-0.194-0.139l-0.2,0.041l-0.17,0.117l-0.008-0.009l-0.039,0.04
			l-0.033,0.024l0.006,0.006l-0.157,0.164l0.03,0.039l0.019,0.231l-0.009,0.112l-0.079,0.031l-0.046,0.066l-0.117-0.345l-0.046-0.26
			l0.044-0.014l-0.033-0.162l0.045-0.053v-0.253l-0.315-0.431l-0.067-0.062l0.048-0.101l0.067-0.325l-0.126-0.196l0.06-0.047
			l0.05-0.228l0.022-0.014l0.004,0.012l0.146-0.147l0.116,0.019l-0.015,0.06l-0.007-0.015l-0.142,0.129l-0.118,0.305l0.146,0.055
			l-0.01,0.01l0.063,0.29l0.203-0.028l0.021,0.254l0.322-0.073l0.415-0.204l0.099,0.134l0.407-0.053l0.123-0.275l0.161-0.226
			l0.411-0.116l0.324,0.13l0.336,0.093l0.188-0.147h0.231l0.146,0.153l-0.061,0.242l-0.083,0.074L88.58,13.6l-0.467-0.118
			l-0.242-0.007l-0.206,0.038l-0.245,0.255l-0.31,0.162l-0.043,0.236l-0.123,0.23l0.186,0.248l0.216,0.207l0.156,0.284l0.023,0.002
			l0.009-0.048l0.52,0.039h0.229l0.173-0.065l0.076-0.375l0.222-0.094l0.14-0.295l0.305-0.117l0.26-0.411l0.298-0.07l0.104-0.331
			l0.228-0.143l0.078,0.074l0.237,0.096l0.049,0.008l0.099-0.211l0.178,0.083l0.069-0.586l-0.17-0.151l-0.084-0.233h-0.342
			l-0.052-0.17l-0.243-0.192l-0.841-0.22l-1.144-0.105l-0.329-0.155l-0.262-0.289l-0.229-0.097l-0.683,0.336l-0.309,0.192
			l-0.135,0.334l0.073,0.246l0.306,0.164l-0.114,0.148l-0.367,0.353l-0.25,0.306l-0.118-0.226l0.175-0.014l0.033-0.147l0.042-0.041
			l0.087,0.011l0.201-0.104l-0.194-0.174l-0.03-0.157l-0.196-0.018l-0.274,0.153l-0.277,0.249l-0.101,0.046l-0.036-0.389
			l-0.103-0.255h-0.321l-0.028-0.04l-0.066-0.325l0.035,0.049l0.118-0.138l0.043,0.051l0.189-0.073l0.07-0.268l0.712-0.739
			l0.083-0.187l0.149,0.062l0.252-0.04l0.033-0.23v-0.091l0.232,0.093l0.025-0.251l0.059-0.179l-0.222-0.098l-0.274,0.021
			l-0.153,0.128l-0.247,0.093l0.101-0.126l0.06-0.168l-0.092-0.13l-0.12-0.241l-0.274,0.185l-0.183-0.084l-0.135,0.336l0.028,0.327
			l0.201,0.088l0.165-0.089l0.138,0.046l0.077-0.096l0.096,0.056l-0.022,0.023l-0.084-0.027l-0.191,0.333l-0.181,0.173l0.078-0.282
			l-0.226,0.033l-0.078,0.089l-0.031-0.164l-0.151,0.151l-0.056,0.158l-0.157-0.243l-0.117,0.209l0.038,0.112l-0.063,0.21
			l0.068,0.081l-0.055,0.089v0.056l-0.251,0.199l0.072-0.238l0.026-0.333l-0.235,0.144l-0.139,0.362l-0.112,0.207l-0.203,0.326
			l-0.28,0.15l-0.017-0.011l0.355-1.314l0.002-0.409l-0.283,0.313l0.002,0.008l-0.121,0.216l-0.047-0.143l-0.206,0.204l-0.201,0.344
			l-0.134,0.417l-0.111,0.224l-0.006-0.008l0.016-0.107l0.061-0.371l-0.15,0.027l-0.15,0.421l-0.38,1.277
			c0,0-0.602,2.117-0.498,3.988c0.004,0.078-0.023,0.431-0.021,0.51c0.055,1.758,0.055,2.386,0.241,3.157
			c0.212,0.88,0.998,2.795,1.314,3.369c1.739,3.15,1.823,2.916,3.359,4.614l0.136-0.09l0.057-0.086v-0.019l-0.025-0.044
			l-0.545-0.496l0.674,0.556v-0.06l0.151,0.108l0.36,0.274l0.193,0.066l0.156,0.115l0.103,0.009l0.238,0.14h0.103l-0.046-0.119
			l0.016,0.002l0.119,0.092l0.262,0.005l0.136-0.028v-0.089l-0.109-0.085l-0.178-0.245l-0.458-0.407L87.505,28l-0.094-0.26
			l-0.354-0.067l-0.151-0.028l-0.489-0.438l-0.067-0.081l0.047-0.032l-0.064-0.247l-0.093-0.074l-0.096,0.038l-0.045-0.095
			l0.011-0.168l-0.164-0.293l-0.184-0.513l0.018-0.015l0.016,0.016l0.006,0.013l0.007,0l0.319,0.263l0.099,0.36l0.116,0.286
			l0.214,0.24l0.217,0.319l0.275,0.289l0.263,0.116l0.214,0.06l0.048,0.236l0.398,0.397l0.272,0.222l0.491,0.342l0.032,0.016
			l0.351,0.186l0.443,0.243l0.508,0.216l0.199,0.208l0.079,0.149l0.226,0.134l0.313,0.244c0,0-0.149-0.048-0.164-0.01
			c-0.058,0.149,0.501,0.402,0.501,0.402l0.219,0.102l0.418,0.073l0.043,0.106v0.136l0.245,0.4l0.307,0.207l0.15,0.166l0.186,0.118
			l0.114,0.054l0.302,0.176l0.303,0.108L94,32.351l0.126,0.015l0.095,0.135l0.173,0.048l0.259,0.047l0.143,0.012l0.119-0.082
			l-0.243-0.089l-0.151-0.046l-0.235-0.061l-0.042,0.009l-0.014-0.062l0.13-0.028l-0.098-0.191l0.445,0.022h0.202l0.276-0.057
			l0.586-0.124l0.459-0.038l0.216-0.074l-0.017-0.079l0.338-0.009l0.244,0.012l0.039-0.047l0.254,0.009l0.133,0.02l0.16-0.102
			l-0.012-0.024h0.206l0.11,0.061l0.068,0.12l0.22,0.131l-0.007-0.023l0.129,0.049l0.39,0.141l0.031,0.041l-0.154,0.176h0.3
			l0.192-0.01l0.365-0.104l0.194-0.063l0.099,0.041l0.041,0.08l0.107,0.087l0.078,0.018l-0.03,0.065l0.006,0.001l-0.027,0.012
			l0.033,0.035l-0.174,0.122l-0.605,0.091l-0.201,0.019l0.024,0.187l0.346-0.013l2.09-0.416l-0.055-0.177l-0.478,0.085l-0.483,0.028
			l-0.015,0.002l0.145-0.084l0.024-0.067l0.102-0.02l-0.065,0.069l0.42-0.093l0.338-0.026l0.018,0.002l0.041,0.006h0.122
			l0.182-0.048h0.268l0.416-0.158l0.246-0.121l0.137-0.056l0.007-0.003h-0.002l0.217-0.088l0.273-0.138l0.087-0.174l-0.143-0.123
			l-0.19,0.001l-0.262,0.039l-0.386-0.089l0.25-0.178l0.387-0.246l0.135-0.065l0.254-0.067l0.073,0.055l-0.195,0.091l-0.164,0.12
			v0.172l0.298-0.073l0.273-0.159l0.07-0.089l0.225-0.179l-0.192-0.021l0.049-0.081l0.295-0.138l0.398-0.256l0.149-0.13h0.096
			l0.177-0.15l0.313-0.174l0.376-0.328l0.371-0.351l0.221-0.33l0.195-0.338l0.144-0.296l0.151-0.106l0.041-0.207l0.013-0.229
			l-0.192,0.051l-0.015-0.011l0.123-0.134l-0.042-0.199l-0.226-0.04l-0.178-0.082l-0.168-0.154l-0.23,0.043l0.057-0.15l0.208-0.251
			l0.08-0.194l0.349-0.32l-0.133-0.151l-0.179,0.112l-0.259,0.049l-0.217,0.333l-0.163,0.037l-0.04-0.101l-0.238,0.087l-0.121-0.058
			l0.068-0.135l0.242-0.154l0.108-0.255l0.214-0.34l0.154-0.194l0.081,0.027l-0.118,0.278l0.077,0.057l-0.173,0.406l0.416-0.436
			l0.127-0.219l0.282-0.286l0.106-0.006l0.12-0.06l-0.004,0.154l0.017,0.016l-0.021,0.04l-0.052,0.222l0.146-0.021l0.034-0.01
			l0.045,0.064l0.105-0.137l0.005-0.042l0.085-0.032l0.133,0.04l-0.138,0.154l0.191,0.161v0.183l0.099,0.156l0.249-0.24l0.139-0.225
			l0.182-0.213l0.063-0.212l-0.093-0.253L107.972,24.663z M84.356,11.062l0.001,0.233l-0.039,0.284l-0.138-0.158L84.356,11.062z
			 M82.913,21.149l-0.083-0.131l-0.325-1.13l-0.116-0.475v-0.157l-0.141-0.542l-0.086-0.131l-0.125-0.022l-0.067-0.274l-0.065-0.664
			l0.036-0.239l-0.027-1.188l0.025-0.249l0.005-0.01l0.167-0.083l0.018-0.115l0.009-0.013l0.064,0.068l0.056-0.121l-0.053-0.15
			l0.047-0.05l-0.042-0.579l0.017-0.128l0.048-1.36l-0.02-0.299l0.18-0.293l0.056,0.153l0.11-0.239l0.087,0.089l0.006-0.002
			l-0.009,0.199l0.102,0.221l0.133-0.138l0.005-0.003l0.021,0.213L82.888,13.8l0.096,0.23l0.081,0.071l0.011,0.063l-0.053,0.342
			l-0.137,0.203l-0.148,0.56l-0.124,0.912l-0.061,0.272l-0.029,0.118l-0.01-0.004l-0.022,0.011l-0.081-0.384l-0.026-0.375
			l-0.146,0.095l-0.02,0.448l-0.015,0.46l0.167-0.124l0.028,0.129l0.126,0.008l0.027,0.122l0.143-0.1l0.019-0.211h0.009L82.7,17.101
			l0.135-0.029l0.032-0.093l0.031-0.291l0.036-0.351l0.039-0.196l0.045-0.548l0.114-0.233l0.052-0.294l0.062-0.125l0.059,0.159
			l-0.086,0.203h0.1v0.101l-0.073,0.12l-0.019-0.037l-0.119,0.424l0,0.007l-0.03,0.452l-0.083,0.624l-0.104,0.11l-0.065,0.115
			l-0.045,0.29l-0.092,0.434l-0.116,0.375l0.009,0.276l0.112,0.325l0.063-0.244l0.063,0.149l0.167-0.135l-0.016-0.179l0.01-0.097
			l0.068-0.159l0.188,0.336l0.008-0.226l0.044,0.084l0.073,0.25l-0.014,0.017l-0.043,0.205l-0.09-0.017v0.26l-0.138,0.021
			l0.013,0.311l-0.043,0.32l0.109,0.261l0.059,0.324l0.108,0.193l0.065-0.019l0.093,0.207l0.048,0.287l0.225,0.365l0.14,0.056
			l0.101,0.243l-0.019-0.004l0.001,0.014l-0.276-0.308l-0.099-0.199l-0.191-0.24v0.303l0.053,0.161l0.254,0.262v-0.099l0.261,0.174
			l0.006,0.127l-0.055,0.013l-0.045,0.148l-0.421,0.169l-0.15-0.246l-0.222-0.579L82.913,21.149z M84.04,25.426l-0.099-0.225
			l-0.178-0.352l-0.057-0.115l-0.061-0.207l-0.051-0.314l-0.004-0.009h0l-0.268-0.882l-0.065-0.324l-0.023-0.18l0.078,0.042
			l0.057,0.146l0.042,0.215l0.358,1.184l0.072,0.268l0.011,0.186l0.123,0.277l0.362,0.728l0.105,0.185L84.04,25.426z M87.707,24.466
			l-0.165-0.207l-0.005-0.008l0.084-0.145l0.133,0.052v0.149l0.073,0.199L87.707,24.466z"/>
		<polygon fill="#FFFFFF" points="84.732,19.763 84.991,19.927 85.163,20.119 85.164,20.119 84.991,19.926 84.733,19.762 
			84.695,19.602 84.791,19.554 84.716,19.257 84.715,19.257 84.79,19.555 84.694,19.603 		"/>
		<rect x="85.585" y="20.044" fill="#FFFFFF" width="0" height="0.209"/>
	</g>
</g>
<path fill="#808080" d="M85.163,20.119l-0.172-0.191l-0.258-0.164l-0.038-0.161l0.095-0.048l-0.074-0.298h0.046l0.163,0.136v-0.066
	l0.046,0.007L85,19.326l0.039,0.115l0.049,0.113v0.115l0.007,0.017l-0.028,0.039l0.028,0.155l0.143,0.199L85.163,20.119z
	 M85.487,15.107l-0.046-0.26l0.122-0.036l0.156,0.201l0.019,0.231l-0.009,0.112l-0.078,0.031l-0.047,0.066L85.487,15.107z
	 M94.804,11.76l-0.07-0.018l-0.046,0.049h-0.104l0.007-0.114l0.116-0.078l-0.095-0.097l0.145,0.03l0.077,0.058l-0.067,0.086
	l0.094-0.049l0.094-0.022l0.008,0.128l-0.055,0.037L94.804,11.76z M93.625,14.477l-0.373,0.249l-0.162,0.296l0.036,0.42h-0.082
	l-0.337-0.288l0.078-0.171l-0.125-0.217l0.125-0.195h0.144l0.133-0.189l0.384-0.162l-0.059-0.097l0.422-0.163l0.077-0.171
	l0.313-0.068l0.413-0.074l0.325,0.063l0.209-0.076l0.192,0.021v0.172l-0.105,0.095l-0.414,0.06l-0.361,0.045l-0.48,0.193
	L93.625,14.477z M97.53,12.699l-0.096-0.078l0.16-0.277l0.123-0.105l0.155,0.191l0.222,0.354l0.047,0.365l-0.164,0.076l-0.238-0.097
	l-0.145-0.143L97.53,12.699z M98.609,13.293l-0.438,0.245l0.044-0.544l0.058-0.058l0.058,0.01l0.258,0.183L98.609,13.293z
	 M101.736,12.946l-0.162-0.238l0.027-0.143l0.174-0.163l0.374-0.125l0.19,0.247l-0.24,0.279l-0.038,0.182L101.736,12.946z
	 M102.329,12.295l-0.096-0.104l0.145-0.106l0.21-0.144l0.074,0.195l-0.103,0.103L102.329,12.295z M102.502,13.272l-0.063-0.194
	l0.063-0.123l0.208-0.02l0.089,0.058l-0.099,0.135l-0.182,0.144H102.502z M104.47,9.581l-0.009-0.095l0.086-0.136l0.046,0.01
	l0.096,0.137l0.029,0.142l0.029,0.134l-0.107-0.011l-0.15-0.161L104.47,9.581z M109.354,19.916l-0.198,0.022l0.03,0.305
	l-0.154-0.154l-0.146-0.249l-0.2-0.237l-0.095-0.221l-0.238-0.334l-0.271-0.144l-0.255-0.351l0.019-0.278l-0.142-0.06l0.028-0.104
	l0.161,0.116l0.241,0.182l0.2,0.247l0.239,0.163l0.452,0.229l-0.24,0.209l0.161,0.459l0.296,0.037L109.354,19.916z M109.625,16.13
	l-0.356-0.199l-0.554-0.346l-0.295-0.371l-0.096-0.268L108.2,14.84l0.037-0.315l-0.239-0.544l-0.211-0.47l-0.151-0.433l-0.382-0.36
	l-0.019,0.199l0.223,0.238l0.198,0.604l-0.384-0.096l-0.045,0.47l0.309,0.752l0.211-0.007l-0.091,0.431l-0.095,0.274l-0.182-0.17
	l-0.165,0.209l0.021,0.316l-0.333,0.44l-0.28,0.584l0.058,1.031l-0.037,1.255l0.248-0.211l0.202,0.085l0.173-0.096l-0.012-0.238
	l0.163-0.172l0.412,0.037l0.171,0.212l0.084,0.39l0.213,0.317l0.21,0.478l0.01,0.639l0.057,0.229l-0.048,0.546l-0.077,0.538
	l-0.027,0.255l-0.174,0.392l-0.113,0.125h-0.171l-0.176,0.42l0.01,0.116l-0.052-0.019l-0.051-0.125l0.092-0.095l-0.113-0.325
	l-0.152-0.165l0.114-0.247l0.24-0.172l-0.011-0.365l-0.094-0.341l0.011-0.167l-0.062-0.325l-0.228,0.363l-0.087,0.256l-0.275,0.259
	l-0.211-0.189l-0.316-0.01l-0.374,0.182l-0.209-0.23l-0.16-0.126l-0.139-0.076l-0.268-0.218h-0.22l-0.326,0.103l-0.255,0.183
	l-0.212,0.212l-0.1,0.256l0.138,0.01l0.088,0.184l-0.076,0.161l-0.059,0.451l0.059,0.141l-0.232,0.365l-0.303,0.028l-0.26,0.151
	l-0.163-0.047l-0.143,0.027l-0.269,0.386l-0.295,0.18l-0.192,0.172l-0.325,0.056l-0.222,0.086l-0.189-0.123l-0.27-0.089l-0.256,0.03
	l-0.299,0.136l-0.228,0.123l-0.373-0.065l-0.095-0.25l-0.298-0.029h-0.23l-0.292-0.103l-0.221,0.41l0.121,0.19l-0.227,0.278
	l-0.375-0.046l-0.259,0.007l-0.181-0.151l-0.267,0.019l-0.228-0.106L97.53,24.7l-0.498,0.295l-0.28,0.058l-0.103,0.021l-0.126-0.22
	l-0.344,0.026l-0.098-0.163l-0.181-0.086l-0.104-0.208l-0.135-0.086l-0.372,0.048l-0.328-0.257l-0.151,0.161l-0.411-1.012
	l-0.25-0.355l0.106-0.095l-0.641,0.199l-0.229-0.047l0.069-0.189l-0.27-0.21l-0.25,0.008l0.029-0.392l-0.365-0.219l-0.235,0.075
	l-0.576-0.105l-0.132,0.039l-0.813-0.268l-0.136,0.056l0.059,0.31l-0.229-0.021v0.105l-0.259,0.046l0.248,0.414l-0.114,0.123
	l-0.291-0.194l-0.101,0.059L89.83,22.29l-0.324-0.201l-0.27-0.017l-0.171-0.288l-0.305-0.527l-0.289-0.229l-0.536-0.011
	l-0.144,0.192l-0.074-0.333l-0.316,0.172l0.018,0.104l-0.218,0.105l0.048,0.324l0.135,0.116l0.017,0.288l-0.088,0.125l0.071,0.122
	l-0.164,0.078l-0.204-0.125l-0.228,0.06l-0.086,0.017l0.049,0.401l-0.059,0.08l-0.04,0.064l0.04,0.27l0.03,0.219l-0.155-0.02
	l-0.065,0.029l-0.075-0.107l-0.06-0.268l-0.049-0.056l-0.087-0.184l-0.007-0.149l-0.134-0.23l-0.05-0.029l-0.074-0.049l-0.009-0.074
	l-0.166-0.385l-0.221-0.333l-0.103-0.209l-0.029,0.008l-0.077-0.45l-0.108-0.324l-0.038-0.308l0.126,0.116l0.251-0.019l-0.023-0.209
	l0.27,0.199l0.038-0.058l-0.151-0.142l0.079-0.098l0.113,0.04l0.15,0.162l0.079-0.047l0.058-0.173l0.152-0.058l0.047-0.077
	l-0.154-0.352l-0.076-0.108l0.011-0.229L86.053,19l-0.085-0.326l0.036-0.037l0.038-0.173L85.959,18.3l0.055-0.086h0.067l0.048-0.259
	l-0.131-0.169l-0.03-0.066L85.9,17.729l-0.029-0.087l0.108-0.191l0.047-0.114l0.037,0.01l0.074,0.162l0.089,0.02l0.026-0.115
	l-0.033-0.165l0.042-0.026v-0.124l0.088-0.259l0.084-0.03l0.098-0.124l-0.037-0.219L86.429,16.4l0.034-0.086l-0.029-0.241
	l0.117-0.191l0.116-0.113l0.019-0.135h0.115l0.208-0.258l0.213-0.011l0.029-0.054l0.236,0.054l0.047-0.276l0.52,0.038h0.229
	l0.173-0.065l0.076-0.375l0.222-0.093l0.14-0.296l0.305-0.117l0.26-0.411l0.299-0.069l0.104-0.331l0.228-0.144l0.078,0.075
	l0.237,0.096l0.172,0.028l-0.066,0.327l0.135,0.351v0.729l-0.057,0.22l-0.173,0.192l-0.259,0.028l-0.23-0.117l-0.162-0.745
	l-0.098-0.058l-0.083,0.394l-0.125,0.124l-0.278,0.279l0.032,0.244l0.011,0.173l0.142-0.113l0.057-0.19l0.162-0.019l0.065,0.469
	l0.155,0.036l0.123-0.287l0.5-0.019l0.076,0.123l0.008,0.212l0.24-0.145l0.065-0.278l0.212-0.121l0.089-0.27l0.198,0.383
	l-0.079,0.229l-0.171-0.084l-0.141,0.17v0.184l0.226,0.094l0.185-0.181l0.352,0.036l0.6,0.022l0.081,0.076l-0.259,0.136l0.132,0.132
	l0.154-0.058l0.237,0.134l0.27-0.041l0.029,0.306l0.276-0.161l-0.029-0.288l0.133-0.086l0.316,0.294l0.127,0.203l0.324,0.65
	l0.163-0.172l-0.068-0.259L94.2,16.6l-0.142-0.105l0.113-0.161l0.048-0.335l0.047-0.124l0.366-0.269l0.202-0.327l0.115-0.044
	l0.276,0.199l-0.046,0.228l-0.215,0.287l0.042,0.155L94.963,16.4l-0.192,0.544l0.089,0.288l-0.134,0.249l-0.469,0.474l0.163,0.118
	l0.107-0.124l0.199-0.047l0.093-0.191l0.185-0.163l-0.028-0.251l0.134-0.248l-0.155-0.075l0.028-0.239l0.218-0.375l-0.076-0.371
	l0.298-0.211l0.048-0.297h0.06l0.008,0.238l-0.143,0.385l0.123,0.106l0.012-0.309l0.237-0.113l0.268,0.029l0.203,0.277l-0.067-0.366
	l0.058-0.439l0.219-0.055l0.278,0.044l0.25-0.036l-0.08-0.221l0.144-0.27l0.124-0.007l0.212-0.202l0.266-0.066l0.03-0.114
	l0.257-0.057l0.098,0.085l0.189-0.241l0.187-0.026l-0.012-0.172l0.045-0.191l0.174-0.208l0.182,0.094l-0.087,0.123l0.219,0.009
	l0.078,0.192l0.057-0.124l0.267-0.077l0.277,0.104l0.134,0.114l0.058,0.211l-0.058,0.152l-0.179,0.316l-0.04,0.144l0.154,0.01
	l0.191,0.039l0.063-0.115l0.165,0.229v-0.127l0.144-0.121l0.362-0.098l0.117,0.152l0.45-0.178l-0.156-0.279l0.242-0.064l0.146-0.109
	l0.277,0.07l0.198,0.182l0.038,0.179l0.318,0.171h0.255l-0.171-0.409l0.258,0.009l0.079-0.217l0.253-0.078l-0.017-0.155l0.177-0.103
	l-0.338-0.202l-0.029-0.227l0.794-0.662l0.239,0.057l0.39-0.105l0.133-0.468L104.396,12l0.171-0.019l0.241,0.155l0.141-0.099
	l-0.019-0.19l0.04-0.22l0.125-0.192v-0.249l0.332-0.095l-0.094-0.193l-0.228,0.019l-0.145-0.104l0.122-0.342l-0.01-0.259
	l0.157-0.307l0.131-0.132l0.222-0.25l0.268-0.277l0.199,0.038l0.057-0.075h-0.219l-0.027-0.344l0.207-0.222l0.174,0.146l0.083,0.229
	l0.297,0.047l0.08,0.067l0.018,0.131l-0.076,0.086l-0.061,0.173h-0.123l-0.026,0.135l0.064,0.161l-0.104,0.05l-0.125-0.058
	l0.096,0.18l0.146-0.02l0.141,0.115l0.151,0.22l-0.019,0.182l0.167-0.076l0.235-0.019l0.079-0.04l0.113,0.021l0.085,0.057
	l-0.048,0.268l0.239,0.527l0.029,0.152l0.192,0.335l0.161,0.325l0.125,0.125l-0.222,0.144l0.162,0.552l-0.111,0.021l0.083,0.229
	l-0.083,0.202l0.171,0.171l0.212,0.374l0.104,0.066l0.104-0.162l0.375,0.267l-0.041,0.181l0.192,0.231l0.125-0.009l0.038,0.43
	l0.241,0.267l-0.028,0.345l0.207,0.247l0.098,0.473L109.625,16.13z"/>
<path fill="#D6D6D6" d="M109.818,26.992c1.25-1.561,2.222-3.351,2.825-5.305c0.549-1.595,0.861-3.296,0.861-5.069
	c0-2.948-0.838-5.701-2.271-8.068c-0.029-0.048-1.036-1.548-1.507-2.105c-0.256-0.301-4.873-5.727-12.361-5.68
	c-0.761,0.005-1.504,0.07-2.237,0.17c-7.041,0.861-12.632,5.987-13.646,12.479c-0.257,1.141-0.405,2.32-0.405,3.537
	c0,8.864,7.209,16.076,16.08,16.109v0.003l0.222-0.008c3.212-0.032,6.201-1.005,8.705-2.656c0,0,2.008-1.192,3.729-3.402
	l0.002,0.001C109.817,26.996,109.818,26.992,109.818,26.992z M105.995,29.991c-0.018,0.102-0.034,0.179-0.048,0.233
	c-1.201,0.789-2.511,1.422-3.907,1.867c0.002-0.076,0.006-0.178,0.006-0.307C103.457,31.364,104.778,30.751,105.995,29.991z
	 M102.047,31.56c-0.004-0.431-0.028-1.073-0.106-1.96c1.437-0.413,2.781-1.017,4.012-1.768c0.119,0.871,0.114,1.485,0.078,1.883
	C104.806,30.499,103.472,31.128,102.047,31.56z M88.401,29.527c-0.026-0.38-0.01-0.924,0.111-1.68
	c1.237,0.752,2.59,1.354,4.033,1.764c-0.045,0.853-0.034,1.475-0.003,1.901C91.056,31.048,89.664,30.375,88.401,29.527z
	 M92.563,31.753c0.019,0.177,0.039,0.313,0.056,0.406c-1.459-0.442-2.826-1.089-4.076-1.903c-0.024-0.057-0.078-0.195-0.113-0.449
	C89.694,30.637,91.082,31.298,92.563,31.753z M85.462,6.271c0.034-0.038,0.071-0.075,0.105-0.112
	c0.019-0.005,0.044-0.01,0.065-0.014c-0.671,0.837-1.234,1.747-1.668,2.72c-0.248,0.128-0.458,0.252-0.625,0.367
	c0.491-0.892,1.065-1.734,1.716-2.512C85.184,6.565,85.326,6.422,85.462,6.271z M113.095,17.81c-0.034-0.092-0.072-0.19-0.12-0.295
	c0.063-0.431,0.104-0.869,0.125-1.312c0.012,0.25,0.038,0.496,0.038,0.748C113.138,17.239,113.109,17.524,113.095,17.81z
	 M81.521,15.528c0-0.239,0.026-0.47,0.039-0.707c0.04-0.339,0.095-0.674,0.158-1.007c0.184-0.277,0.57-0.764,1.286-1.324
	c-0.035,0.366-0.062,0.736-0.062,1.111c0,0.655,0.072,1.294,0.179,1.923c-0.713,0.709-1.173,1.336-1.462,1.822
	C81.577,16.749,81.521,16.145,81.521,15.528z M112.654,13.132c-0.259-0.306-0.666-0.705-1.283-1.139
	c-0.136-0.963-0.393-1.889-0.753-2.773c0.337,0.147,0.568,0.268,0.679,0.332C111.889,10.672,112.342,11.875,112.654,13.132z
	 M111.118,11.823c-0.732-0.48-1.724-0.986-3.055-1.441c-0.08-0.702-0.253-1.378-0.494-2.029c1.206,0.207,2.127,0.497,2.761,0.75
	C110.701,9.969,110.967,10.878,111.118,11.823z M111.274,13.601c0,0.53-0.048,1.047-0.119,1.56
	c-0.759-0.695-1.792-1.456-3.189-2.246c0.092-0.506,0.154-1.021,0.154-1.55c0-0.242-0.021-0.481-0.042-0.719
	c1.376,0.484,2.378,1.021,3.097,1.516C111.235,12.635,111.274,13.113,111.274,13.601z M105.378,17.434
	c-1.012-1.302-2.251-2.748-3.765-4.344c0.331-0.307,0.623-0.646,0.862-1.015c1.794,1.145,3.247,2.234,4.423,3.248
	C106.496,16.086,105.987,16.796,105.378,17.434z M87.644,15.516c1.169-1.033,2.607-2.154,4.379-3.354
	c0.23,0.34,0.504,0.656,0.815,0.941c-1.507,1.601-2.738,3.054-3.742,4.366C88.523,16.877,88.038,16.22,87.644,15.516z
	 M86.538,11.365c0-0.255,0.021-0.506,0.045-0.758c1.228-0.443,2.748-0.84,4.616-1.129c0,0.02-0.003,0.04-0.003,0.061
	c0,0.379,0.049,0.748,0.14,1.104c-1.871,0.73-3.4,1.479-4.649,2.212C86.597,12.369,86.538,11.875,86.538,11.365z M90.277,2.669
	c0.187-0.091,0.37-0.186,0.561-0.27c0.11-0.05,0.222-0.096,0.333-0.145c0.001-0.001,0.003-0.001,0.005-0.001
	c0.161,0.087,0.485,0.279,0.922,0.6c-0.733,0.348-1.412,0.771-2.034,1.25c-0.694-0.224-1.224-0.32-1.563-0.358
	C89.059,3.348,89.653,2.989,90.277,2.669z M103.593,2.396c0.194,0.085,0.382,0.183,0.573,0.276c0.613,0.315,1.197,0.667,1.748,1.058
	c-0.313,0.093-0.787,0.254-1.384,0.5c-0.638-0.512-1.337-0.967-2.098-1.334c0.41-0.345,0.7-0.552,0.833-0.642
	c0.001,0.001,0.003,0.002,0.005,0.003C103.378,2.304,103.486,2.349,103.593,2.396z M103.02,9.539c0,0.364-0.047,0.718-0.134,1.061
	c-1.294-0.482-3.179-1.034-4.813-1.508c1.692,0.041,3.618,0.227,4.945,0.403C103.018,9.51,103.02,9.523,103.02,9.539z M91.415,9.539
	c0-0.032,0.005-0.064,0.005-0.097c1.394-0.206,3.153-0.375,4.949-0.434c-1.747,0.489-3.464,1.03-4.83,1.555
	C91.458,10.231,91.415,9.89,91.415,9.539z M101.994,2.945c-0.532,0.468-1.203,1.119-1.96,1.991c-0.394-0.18-0.815-0.321-1.255-0.424
	c0.401-0.985,0.786-1.739,1.089-2.268C100.611,2.412,101.322,2.647,101.994,2.945z M99.986,2.044
	c0.193-0.324,0.344-0.547,0.429-0.665c0.886,0.181,1.738,0.45,2.564,0.771c-0.18,0.128-0.451,0.333-0.803,0.634
	C101.486,2.471,100.752,2.223,99.986,2.044z M96.979,8.854c0-0.122,0.107-0.221,0.239-0.221s0.239,0.099,0.239,0.221
	c0,0.119-0.107,0.218-0.239,0.218S96.979,8.974,96.979,8.854z M97.367,8.109c-0.028-0.576-0.045-1.779-0.05-3.555
	c0.398,0.005,0.787,0.046,1.16,0.118C98.106,5.617,97.7,6.761,97.367,8.109z M97.144,8.15c-0.359-1.454-0.721-2.497-1.114-3.495
	c0.344-0.063,0.701-0.094,1.064-0.101C97.102,6.583,97.12,7.693,97.144,8.15z M97.905,8.566c1.297-1.068,2.399-1.826,3.487-2.485
	c0.288,0.259,0.542,0.543,0.762,0.849C100.837,7.339,99.482,7.817,97.905,8.566z M102.29,7.12c0.17,0.263,0.311,0.541,0.425,0.832
	c-1.354,0.102-3,0.364-4.657,0.78C99.536,8.048,101.05,7.502,102.29,7.12z M97.803,8.354c0.809-1.258,1.596-2.293,2.314-3.131
	c0.397,0.2,0.767,0.436,1.097,0.708C100.177,6.563,99.027,7.359,97.803,8.354z M97.595,8.22c0.338-1.377,0.722-2.544,1.1-3.5
	c0.417,0.095,0.815,0.225,1.191,0.393C99.173,5.95,98.394,6.978,97.595,8.22z M98.56,4.464c-0.401-0.08-0.816-0.125-1.244-0.131
	c0-0.712,0.006-1.508,0.021-2.389c0.793,0.008,1.563,0.096,2.306,0.249C99.336,2.733,98.955,3.487,98.56,4.464z M97.094,4.334
	c-0.393,0.007-0.776,0.044-1.147,0.114c-0.395-0.979-0.774-1.735-1.075-2.272c0.724-0.145,1.473-0.225,2.244-0.231
	C97.1,2.825,97.094,3.622,97.094,4.334z M95.728,4.497c-0.405,0.091-0.794,0.215-1.163,0.372c-0.756-0.873-1.461-1.509-2.034-1.959
	c0.669-0.291,1.376-0.52,2.117-0.683C94.946,2.753,95.328,3.507,95.728,4.497z M95.812,4.704c0.393,0.995,0.721,2.039,1.083,3.503
	c-0.738-1.368-1.44-2.283-2.181-3.162C95.062,4.901,95.43,4.786,95.812,4.704z M96.673,8.344c-1.181-1.126-2.238-1.933-3.236-2.582
	c0.325-0.242,0.68-0.454,1.063-0.629C95.227,5.989,95.945,7.011,96.673,8.344z M96.549,8.468c-1.419-0.671-2.985-1.379-4.114-1.749
	c0.235-0.294,0.508-0.563,0.81-0.807C94.165,6.501,95.471,7.476,96.549,8.468z M96.463,8.609c-1.777-0.389-3.338-0.622-4.706-0.739
	c0.14-0.337,0.32-0.658,0.537-0.957C93.512,7.306,94.899,7.853,96.463,8.609z M96.343,8.81c-1.848,0.055-3.479,0.195-4.908,0.401
	c0.03-0.387,0.105-0.764,0.231-1.122C93.024,8.199,94.578,8.428,96.343,8.81z M96.48,9.161c-1.592,0.912-3.147,1.854-4.398,2.69
	c-0.205-0.335-0.364-0.694-0.476-1.068C92.991,10.246,94.702,9.656,96.48,9.161z M96.693,9.278
	c-1.389,1.299-2.616,2.519-3.702,3.666c-0.3-0.275-0.563-0.577-0.785-0.904C93.516,11.161,95.004,10.238,96.693,9.278z
	 M96.798,9.424c-0.937,1.531-1.822,3.061-2.57,4.382c-0.388-0.202-0.748-0.438-1.071-0.709
	C94.215,11.976,95.452,10.685,96.798,9.424z M96.964,9.548c-0.508,1.674-0.984,3.327-1.385,4.772
	c-0.403-0.102-0.791-0.239-1.153-0.412C95.17,12.592,96.031,11.074,96.964,9.548z M97.158,9.576
	c-0.016,1.234-0.033,3.056-0.037,4.945c-0.456-0.005-0.899-0.059-1.324-0.152C96.196,12.931,96.653,11.238,97.158,9.576z
	 M97.375,9.57c0.495,1.71,0.936,3.302,1.327,4.785c-0.436,0.1-0.889,0.158-1.359,0.166C97.347,12.55,97.357,10.816,97.375,9.57z
	 M97.602,9.548c0.955,1.508,1.816,2.963,2.57,4.276c-0.392,0.2-0.81,0.366-1.252,0.483C98.533,12.845,98.087,11.229,97.602,9.548z
	 M97.767,9.521c1.214,1.148,2.554,2.539,3.528,3.562c-0.281,0.24-0.591,0.452-0.924,0.638C99.672,12.506,98.637,10.902,97.767,9.521
	z M97.989,9.493c1.61,0.846,3.04,1.67,4.299,2.466c-0.229,0.353-0.509,0.678-0.827,0.971C100.434,11.853,99.28,10.708,97.989,9.493z
	 M98.01,9.254c1.81,0.513,3.41,1.038,4.81,1.563c-0.102,0.331-0.24,0.647-0.416,0.947C101.117,10.954,99.656,10.116,98.01,9.254z
	 M98.031,8.954c1.695-0.428,3.388-0.688,4.761-0.789c0.117,0.352,0.188,0.72,0.212,1.099C101.599,9.083,99.84,8.986,98.031,8.954z
	 M103.018,8.15c1.683-0.107,3.116-0.02,4.295,0.164c0.247,0.636,0.425,1.3,0.514,1.989c-1.235-0.403-2.747-0.76-4.598-1.009
	C103.206,8.898,103.136,8.516,103.018,8.15z M102.947,7.934c-0.114-0.306-0.259-0.601-0.435-0.88
	c1.415-0.424,2.645-0.68,3.646-0.833c0.426,0.576,0.779,1.199,1.056,1.853C106.033,7.901,104.606,7.824,102.947,7.934z
	 M102.377,6.863c-0.226-0.325-0.491-0.626-0.79-0.9c1.137-0.676,2.125-1.153,2.906-1.48c0.563,0.464,1.074,0.977,1.514,1.538
	C105.001,6.18,103.777,6.441,102.377,6.863z M101.416,5.809c-0.347-0.291-0.735-0.544-1.154-0.759
	c0.776-0.889,1.458-1.54,1.985-1.997c0.742,0.352,1.426,0.783,2.051,1.273C103.513,4.661,102.532,5.142,101.416,5.809z
	 M99.759,1.994c-0.778-0.166-1.585-0.262-2.417-0.269c0.003-0.215,0.009-0.437,0.015-0.66c0.96,0.008,1.9,0.105,2.813,0.277
	C100.073,1.483,99.932,1.7,99.759,1.994z M97.121,1.722c-0.813,0.007-1.602,0.097-2.362,0.253c-0.172-0.294-0.31-0.509-0.404-0.647
	c0.904-0.164,1.831-0.261,2.78-0.266C97.129,1.286,97.124,1.508,97.121,1.722z M94.533,2.027c-0.769,0.172-1.505,0.417-2.198,0.727
	c-0.377-0.284-0.68-0.478-0.887-0.599c0.857-0.334,1.744-0.606,2.664-0.789C94.19,1.477,94.337,1.695,94.533,2.027z M92.299,3.007
	c0.568,0.437,1.283,1.067,2.053,1.95c-0.403,0.189-0.773,0.421-1.115,0.682c-1.134-0.715-2.124-1.17-2.925-1.451
	C90.921,3.732,91.586,3.334,92.299,3.007z M93.044,5.79c-0.311,0.259-0.593,0.546-0.834,0.857c-1.436-0.454-2.642-0.702-3.622-0.813
	c0.443-0.536,0.947-1.029,1.505-1.472C90.89,4.631,91.892,5.076,93.044,5.79z M92.073,6.844c-0.221,0.314-0.405,0.648-0.546,1.003
	c-1.704-0.133-3.097-0.084-4.237,0.065c0.295-0.658,0.663-1.282,1.111-1.858C89.384,6.152,90.604,6.386,92.073,6.844z M91.443,8.066
	c-0.128,0.378-0.204,0.772-0.23,1.179c-1.856,0.279-3.373,0.665-4.609,1.096c0.093-0.753,0.294-1.476,0.577-2.165
	C88.319,8.011,89.714,7.941,91.443,8.066z M91.4,10.862c0.118,0.39,0.283,0.763,0.498,1.111c-1.763,1.19-3.199,2.3-4.372,3.327
	c-0.36-0.689-0.632-1.42-0.796-2.186C87.977,12.369,89.513,11.604,91.4,10.862z M93.005,13.255c0.337,0.284,0.712,0.532,1.116,0.743
	c-1.109,1.966-2.015,3.704-2.757,5.242c-0.778-0.451-1.478-0.993-2.097-1.603C90.268,16.32,91.496,14.862,93.005,13.255z
	 M94.319,14.102c0.377,0.18,0.781,0.324,1.202,0.432c-0.604,2.188-1.091,4.125-1.482,5.832c-0.88-0.244-1.706-0.591-2.472-1.016
	C92.307,17.812,93.211,16.072,94.319,14.102z M95.739,14.582c0.443,0.097,0.904,0.155,1.381,0.161
	c-0.003,1.888-0.003,3.972-0.001,6.045c-0.99-0.008-1.948-0.139-2.858-0.371C94.651,18.709,95.137,16.771,95.739,14.582z
	 M97.342,14.742c0.49-0.009,0.961-0.069,1.417-0.174c0.573,2.181,1.042,4.126,1.422,5.847c-0.905,0.231-1.856,0.361-2.84,0.371
	C97.338,18.714,97.338,16.629,97.342,14.742z M98.975,14.519c0.462-0.121,0.898-0.293,1.307-0.504
	c1.116,1.954,2.025,3.698,2.758,5.244c-0.812,0.469-1.699,0.847-2.644,1.107C100.017,18.643,99.548,16.699,98.975,14.519z
	 M100.481,13.911c0.348-0.195,0.673-0.417,0.967-0.668c1.516,1.602,2.752,3.052,3.76,4.357c-0.583,0.581-1.238,1.103-1.965,1.543
	C102.507,17.598,101.597,15.859,100.481,13.911z M102.591,11.88c0.182-0.311,0.328-0.641,0.435-0.982
	c1.902,0.725,3.443,1.451,4.691,2.153c-0.147,0.715-0.381,1.404-0.7,2.055C105.835,14.096,104.382,13.017,102.591,11.88z
	 M103.091,10.68c0.096-0.369,0.151-0.749,0.151-1.142c0-0.003-0.001-0.008-0.001-0.013c1.865,0.26,3.381,0.628,4.611,1.044
	c0.026,0.263,0.046,0.527,0.046,0.796c0,0.489-0.055,0.966-0.136,1.434C106.51,12.106,104.975,11.393,103.091,10.68z M107.471,8.116
	c-0.278-0.681-0.636-1.329-1.071-1.93c0.875-0.124,1.551-0.167,2-0.18c0.731,0.86,1.35,1.802,1.815,2.817
	C109.554,8.574,108.637,8.306,107.471,8.116z M106.26,5.983c-0.443-0.581-0.962-1.112-1.534-1.594
	c0.664-0.268,1.154-0.421,1.428-0.498c0.763,0.564,1.451,1.204,2.066,1.898C107.749,5.809,107.084,5.863,106.26,5.983z
	 M88.217,3.944c0.241,0.017,0.806,0.086,1.625,0.339c-0.565,0.461-1.077,0.972-1.521,1.527c-0.895-0.083-1.605-0.061-2.125,0.002
	C86.8,5.13,87.474,4.501,88.217,3.944z M88.144,6.032c-0.448,0.595-0.815,1.241-1.107,1.92c-1.203,0.179-2.115,0.464-2.771,0.763
	c0.446-0.944,1.029-1.822,1.707-2.633C86.465,6.004,87.181,5.955,88.144,6.032z M86.927,8.213c-0.277,0.707-0.471,1.443-0.556,2.211
	c-1.345,0.49-2.343,1.033-3.077,1.543c0.148-1.015,0.43-1.989,0.831-2.912C84.757,8.742,85.667,8.42,86.927,8.213z M83.04,12.151
	c-0.573,0.429-0.965,0.826-1.222,1.141c0.28-1.263,0.723-2.463,1.293-3.593c0.148-0.127,0.38-0.298,0.711-0.485
	C83.44,10.15,83.168,11.13,83.04,12.151z M83.162,13.601c0-0.436,0.026-0.864,0.074-1.288c0.72-0.527,1.728-1.103,3.12-1.625
	c-0.018,0.225-0.038,0.448-0.038,0.676c0,0.55,0.064,1.087,0.164,1.612c-1.381,0.828-2.41,1.632-3.171,2.356
	C83.225,14.766,83.162,14.19,83.162,13.601z M86.527,13.237c0.173,0.775,0.458,1.513,0.829,2.209
	c-1.329,1.178-2.304,2.239-3.02,3.173c-0.458-0.939-0.782-1.938-0.973-2.979C84.112,14.911,85.132,14.088,86.527,13.237z
	 M87.476,15.667c0.403,0.714,0.901,1.378,1.483,1.979c-1.137,1.501-1.977,2.815-2.593,3.946c-0.758-0.826-1.391-1.744-1.898-2.725
	C85.173,17.93,86.145,16.859,87.476,15.667z M89.134,17.812c0.629,0.619,1.343,1.168,2.135,1.626
	c-0.856,1.786-1.486,3.296-1.947,4.567c-1.031-0.629-1.958-1.383-2.768-2.228C87.163,20.645,87.995,19.325,89.134,17.812z
	 M91.471,19.548c0.78,0.431,1.621,0.786,2.518,1.031c-0.447,1.972-0.765,3.631-0.987,5.028c-1.24-0.351-2.403-0.855-3.469-1.481
	C89.987,22.856,90.615,21.342,91.471,19.548z M94.212,20.631c0.926,0.235,1.899,0.369,2.908,0.377
	c0.001,1.792,0.007,3.562,0.011,5.174c-1.354-0.006-2.661-0.189-3.898-0.519C93.454,24.266,93.767,22.605,94.212,20.631z
	 M97.341,21.006c1.001-0.01,1.967-0.142,2.887-0.376c0.427,1.955,0.744,3.625,0.976,5.034c-1.224,0.325-2.514,0.505-3.851,0.517
	C97.348,24.569,97.344,22.798,97.341,21.006z M100.443,20.581c0.962-0.264,1.862-0.648,2.691-1.123
	c0.841,1.792,1.444,3.315,1.879,4.608c-1.1,0.659-2.307,1.185-3.596,1.547C101.186,24.202,100.871,22.533,100.443,20.581z
	 M103.341,19.342c0.74-0.446,1.408-0.976,2.002-1.566c1.149,1.504,1.995,2.812,2.612,3.93c-0.795,0.843-1.713,1.591-2.727,2.224
	C104.789,22.639,104.18,21.122,103.341,19.342z M105.514,17.609c0.62-0.644,1.141-1.363,1.554-2.136
	c1.337,1.173,2.309,2.247,3.007,3.196c-0.506,1.026-1.159,1.982-1.939,2.842C107.512,20.396,106.66,19.097,105.514,17.609z
	 M107.188,15.252c0.33-0.66,0.579-1.357,0.735-2.084c1.413,0.813,2.439,1.591,3.18,2.294c-0.172,1.026-0.468,2.015-0.899,2.946
	C109.494,17.464,108.521,16.407,107.188,15.252z M111.295,15.65c0.766,0.764,1.2,1.43,1.442,1.942
	c-0.188,1.211-0.524,2.377-1.016,3.474c-0.253-0.679-0.677-1.505-1.367-2.455C110.8,17.677,111.109,16.682,111.295,15.65z
	 M111.348,15.341c0.087-0.571,0.149-1.149,0.149-1.74c0-0.427-0.027-0.848-0.072-1.262c0.798,0.589,1.19,1.091,1.346,1.324
	c0.086,0.613,0.145,1.231,0.145,1.865c0,0.558-0.043,1.107-0.11,1.648C112.524,16.659,112.072,16.035,111.348,15.341z M110.5,8.933
	c-0.462-1.054-1.077-2.037-1.817-2.934c0.014,0,0.029,0,0.043,0c0.92,0.962,1.723,2.037,2.379,3.206
	C110.949,9.126,110.751,9.036,110.5,8.933z M81.551,18.055c0.227,1.206,0.605,2.362,1.13,3.447
	c-0.083,0.234-0.146,0.447-0.191,0.636c-0.49-1.273-0.831-2.616-0.966-4.021C81.532,18.098,81.54,18.078,81.551,18.055z
	 M81.72,17.72c0.256-0.465,0.702-1.12,1.453-1.889c0.205,1.042,0.547,2.041,1.016,2.979c-0.703,0.947-1.137,1.756-1.403,2.414
	C82.273,20.122,81.922,18.944,81.72,17.72z M84.325,19.063c0.52,0.985,1.165,1.904,1.933,2.731c-0.609,1.148-0.989,2.103-1.22,2.87
	c-0.838-0.953-1.538-2.008-2.095-3.138C83.187,20.875,83.607,20.048,84.325,19.063z M86.446,21.98
	c0.822,0.849,1.756,1.608,2.798,2.24c-0.477,1.342-0.758,2.411-0.916,3.256c-1.151-0.735-2.191-1.607-3.092-2.594
	C85.458,24.12,85.829,23.156,86.446,21.98z M89.458,24.335c1.079,0.631,2.255,1.141,3.51,1.493c-0.229,1.472-0.353,2.645-0.41,3.56
	c-1.434-0.415-2.779-1.017-4.006-1.771C88.703,26.778,88.976,25.705,89.458,24.335z M93.199,25.882
	c1.25,0.33,2.568,0.515,3.934,0.522c0.003,1.36,0.008,2.602,0.011,3.633c-1.511-0.007-2.967-0.217-4.349-0.593
	C92.85,28.533,92.972,27.361,93.199,25.882z M97.354,26.403c1.348-0.013,2.651-0.194,3.885-0.521
	c0.235,1.456,0.378,2.626,0.465,3.547c-1.378,0.379-2.832,0.591-4.337,0.604C97.363,29.003,97.357,27.761,97.354,26.403z
	 M101.455,25.833c1.3-0.364,2.518-0.893,3.629-1.555c0.447,1.364,0.7,2.458,0.833,3.32c-1.224,0.756-2.567,1.359-3.998,1.775
	C101.832,28.449,101.689,27.283,101.455,25.833z M105.301,24.148c1.027-0.638,1.955-1.392,2.764-2.243
	c0.629,1.169,1.01,2.123,1.236,2.874c-0.913,1.017-1.977,1.914-3.153,2.669C106.007,26.582,105.746,25.49,105.301,24.148z
	 M108.25,21.721c0.791-0.862,1.447-1.823,1.967-2.851c0.706,0.997,1.116,1.849,1.347,2.523c-0.546,1.135-1.242,2.193-2.07,3.153
	C109.257,23.792,108.869,22.852,108.25,21.721z M111.659,21.689c0.205,0.701,0.211,1.17,0.201,1.361
	c-0.538,1.165-1.214,2.251-2.013,3.243c-0.021-0.355-0.094-0.849-0.276-1.489C110.403,23.857,111.099,22.809,111.659,21.689z
	 M112.08,22.574c-0.023-0.301-0.09-0.707-0.253-1.207c0.501-1.07,0.855-2.207,1.071-3.388c0.112,0.317,0.142,0.54,0.149,0.646
	c-0.109,1.037-0.317,2.044-0.618,3.011C112.321,21.953,112.209,22.267,112.08,22.574z M82.411,22.553
	c-0.007,0.051-0.013,0.1-0.016,0.146c-0.346-0.883-0.62-1.801-0.803-2.751C81.789,20.848,82.066,21.717,82.411,22.553z
	 M82.605,23.002c0.551,1.226,1.258,2.365,2.092,3.404c-0.008,0.122-0.008,0.225-0.008,0.314c-0.833-1.062-1.539-2.225-2.083-3.476
	l0.005-0.001C82.611,23.237,82.601,23.153,82.605,23.002z M82.651,22.569c0.034-0.206,0.094-0.459,0.19-0.757
	c0.571,1.117,1.277,2.165,2.122,3.107c-0.128,0.466-0.197,0.853-0.235,1.167C83.892,25.012,83.185,23.837,82.651,22.569z
	 M85.168,25.127c0.914,0.982,1.957,1.857,3.118,2.589c-0.117,0.697-0.146,1.229-0.132,1.629c-1.208-0.845-2.291-1.847-3.216-2.981
	C84.967,26.056,85.032,25.645,85.168,25.127z M92.782,29.667c1.388,0.374,2.848,0.584,4.364,0.591
	c0.003,0.821,0.006,1.5,0.009,1.982c-1.52-0.02-2.986-0.246-4.374-0.657C92.749,31.171,92.737,30.55,92.782,29.667z M97.368,30.255
	c1.511-0.013,2.972-0.224,4.356-0.604c0.079,0.903,0.102,1.546,0.103,1.963c-1.414,0.407-2.905,0.635-4.45,0.636
	C97.374,31.769,97.372,31.084,97.368,30.255z M106.184,27.692c1.189-0.752,2.259-1.653,3.188-2.669
	c0.2,0.733,0.249,1.247,0.251,1.56c-0.964,1.141-2.089,2.146-3.342,2.98C106.312,29.134,106.301,28.519,106.184,27.692z
	 M84.936,27.049c-0.004-0.029-0.017-0.145-0.015-0.349c0.939,1.117,2.037,2.1,3.251,2.93c0.018,0.177,0.042,0.321,0.07,0.433
	C87.004,29.216,85.889,28.202,84.936,27.049z M92.859,32.221c-0.014-0.065-0.037-0.197-0.06-0.406
	c1.385,0.402,2.844,0.626,4.355,0.646c0.002,0.151,0.002,0.282,0.002,0.378C95.667,32.833,94.228,32.611,92.859,32.221z
	 M97.377,32.47c1.544-0.001,3.034-0.229,4.449-0.628c-0.001,0.147-0.005,0.254-0.01,0.318c-1.408,0.425-2.896,0.659-4.437,0.674
	C97.378,32.741,97.378,32.615,97.377,32.47z M106.219,30.045c0.012-0.062,0.023-0.13,0.033-0.208
	c1.231-0.801,2.338-1.767,3.302-2.86C108.595,28.151,107.472,29.183,106.219,30.045z"/>
<g>
	<g>
		<path fill="#FFFFFF" d="M37.227,11.501v1.749l-3.247-0.002v-1.499c0-1.103-0.376-1.997-1.999-1.997
			c-1.622,0-1.997,0.894-1.997,1.997v9.991c0,1.104,0.375,2.001,1.997,2.001c1.623,0,1.999-0.894,1.999-1.995v-1.504l3.247,0.004
			v1.747c0,2.759-1.249,4.995-5.246,4.995s-5.493-2.236-5.493-4.999V11.501c0-2.759,1.496-4.995,5.493-4.995
			S37.227,8.744,37.227,11.501z M49.467,11.501v1.749l-3.25-0.002v-1.499c0-1.103-0.374-1.997-1.996-1.997
			c-1.627,0-1.998,0.894-1.998,1.997v9.991c0,1.104,0.371,2.001,1.998,2.001c1.622,0,1.996-0.894,1.996-1.995v-1.504l3.25,0.004
			v1.747c0,2.759-1.25,4.995-5.245,4.995c-3.998,0-5.494-2.236-5.498-4.999V11.501c0-2.759,1.5-4.995,5.498-4.995
			C48.217,6.506,49.467,8.744,49.467,11.501z M18.746,6.506c-3.997,0-5.743,2.236-5.743,4.995v10.489
			c0.001,2.761,1.746,4.997,5.743,4.997c3.996,0,5.74-2.236,5.742-4.999V11.501C24.488,8.742,22.741,6.506,18.746,6.506z
			 M18.746,23.741c-1.623,0-2.25-0.894-2.25-1.995v-9.997c0-1.103,0.628-1.993,2.25-1.993c1.624,0,2.246,0.89,2.246,1.993v9.997
			C20.992,22.847,20.369,23.741,18.746,23.741z M60.454,6.755h2.749v19.98h-3.497v-8.989l0.248-3.997l-5.996,12.986h-2.747V6.755
			h3.501v8.994l-0.252,3.995L60.454,6.755z M5.882,6.755H0.513v19.98h3.494v-5.992h1.875v-0.002c3.992,0,5.616-2.235,5.616-4.994
			v-3.999C11.498,8.993,9.874,6.755,5.882,6.755z M5.882,17.497l-1.875-0.001v-7.491l1.875-0.001
			C7.503,10.005,8.003,10.899,8.003,12v3.497C8.003,16.602,7.503,17.497,5.882,17.497z M70.817,6.755h5.372v19.98h-3.497V10.005
			h-1.875c-1.623,0-2.121,0.895-2.121,1.995v2.748c0,1.09,0.49,1.977,2.063,1.997h1.436l-0.006,0.002h0.006l-0.014,0.04
			l-3.484,9.949h-3.75l2.919-7.292c-1.861-0.83-2.669-2.507-2.669-4.445v-3.25C65.198,8.993,66.823,6.757,70.817,6.755z"/>
	</g>
	<g>
		<path fill="#FFFFFF" d="M173.211,6.878h-9.102c0,6.66-0.022,14.058-1.826,17.267h-1.156l0,0v6.09h2.47l0.271-3.624h8.315
			l0.289,3.624h2.467v-6.09l0,0h-1.729V6.878z M170.496,24.146h-5.345c1.402-3.7,1.424-10.114,1.424-14.801h3.921V24.146z"/>
		<polygon fill="#FFFFFF" points="130.53,26.619 138.916,26.619 138.916,24.15 133.245,24.15 133.245,17.855 137.935,17.855 
			137.935,15.391 133.245,15.391 133.245,9.348 138.916,9.348 138.916,6.878 130.53,6.878 		"/>
		<path fill="#FFFFFF" d="M155.205,6.633c-3.951,0-5.43,2.208-5.43,4.935v10.359c0,2.725,1.479,4.935,5.43,4.935
			c3.947,0,5.423-2.209,5.423-4.935V11.568C160.628,8.841,159.152,6.633,155.205,6.633z M157.916,22.173
			c0,1.235-0.863,2.223-2.711,2.223c-1.852,0-2.714-0.988-2.714-2.223V11.32c0-1.235,0.862-2.222,2.714-2.222
			c1.848,0,2.711,0.987,2.711,2.222V22.173z"/>
		<polygon fill="#FFFFFF" points="184.564,15.391 179.137,15.391 179.137,6.878 176.42,6.878 176.42,26.619 179.137,26.619 
			179.137,17.855 184.564,17.855 184.564,26.619 187.279,26.619 187.279,6.878 184.564,6.876 		"/>
		<path fill="#FFFFFF" d="M195.174,6.88L195.174,6.88c-3.948,0-5.434,2.21-5.434,4.933v2.468c0,1.974,0.785,3.671,2.712,4.461
			l-2.958,7.877h2.962l3.706-9.871h-0.989c-1.852,0-2.717-0.984-2.717-2.22v-2.96c0-1.236,0.866-2.224,2.717-2.224v0.003h1.727
			v17.271h2.712V6.88H195.174z"/>
		<polygon fill="#FFFFFF" points="140.891,26.619 143.605,26.619 143.605,9.348 149.281,9.348 149.281,6.878 140.891,6.878 		"/>
		<path fill="#FFFFFF" d="M123.496,6.633c-3.947,0-5.179,2.206-5.179,4.933v10.361c0,2.725,1.232,4.935,5.179,4.935
			c3.953,0,5.061-2.209,5.061-4.933v-1.234h-2.594v1.479c0,1.235-0.615,2.223-2.466,2.223c-1.849,0-2.465-0.988-2.465-2.223V11.32
			c0-1.235,0.616-2.223,2.465-2.223c1.851,0,2.466,0.988,2.466,2.221v1.479l2.594,0.002v-1.231
			C128.556,8.841,127.448,6.633,123.496,6.633z"/>
	</g>
</g>
</svg>
